<?xml version="1.0" encoding="utf-8"?>
<!-- Generator: Adobe Illustrator 24.3.0, SVG Export Plug-In . SVG Version: 6.00 Build 0)  -->
<svg version="1.1" id="Layer_1" xmlns="http://www.w3.org/2000/svg" xmlns:xlink="http://www.w3.org/1999/xlink" x="0px" y="0px"
	 viewBox="0 0 512 512" style="enable-background:new 0 0 512 512;" xml:space="preserve">
<style type="text/css">
	.st0{fill:#ED1C24;}
	.st1{fill:#606061;}
	.st2{fill:#959595;}
</style>
<g id="XMLID_1_">
	<path id="XMLID_5_" class="st0" d="M24.37,278.3c-13.33-0.28-23.99-6.73-24.27-14.87c-0.28-8.7,11.22-16.27,25.81-16.84
		c14.59-0.56,26.66,6.17,26.94,14.87c0.28,8.84-11.22,16.27-25.81,16.84C26.19,278.3,25.21,278.3,24.37,278.3 M25.07,271.43
		c0.56,0,1.26,0,1.82,0c10.1-0.42,18.1-5.61,17.82-11.64c-0.28-6.03-8.56-10.66-18.66-10.24s-18.1,5.61-17.82,11.64
		C8.51,266.8,15.81,271.15,25.07,271.43z"/>
	<path id="XMLID_8_" class="st0" d="M30.26,268.2c-11.5,6.87-23.85,7.15-28.48,0.28c-4.91-7.3,0.84-19.78,12.91-28.06
		s25.81-8.98,30.72-1.68c4.91,7.3-0.84,19.78-12.91,28.06C31.8,267.22,30.96,267.64,30.26,268.2 M27.17,262.03
		c0.56-0.28,0.98-0.7,1.54-0.98c8.28-5.61,12.35-14.31,8.84-19.36c-3.37-5.05-12.91-4.49-21.18,1.26
		c-8.28,5.61-12.35,14.31-8.84,19.36C10.62,266.94,19.17,266.66,27.17,262.03z"/>
	<path id="XMLID_9_" class="st1" d="M186.4,259.22v-4.63h17.4v21.32h-3.37l-1.4-5.05c-0.84,1.26-1.96,2.38-3.37,3.23
		c-1.4,0.98-2.81,1.68-4.49,2.1c-1.68,0.56-3.37,0.7-5.19,0.7c-3.37,0-6.17-0.56-8.56-1.54c-2.38-1.12-4.35-2.53-5.75-4.49
		c-1.4-1.96-2.53-4.21-3.23-6.73c-0.7-2.53-0.98-5.47-0.98-8.56c0-3.37,0.7-6.73,2.1-9.82c1.4-3.23,3.51-5.75,6.31-7.72
		s6.31-2.95,10.38-2.95c2.67,0,5.05,0.56,7.58,1.54c2.53,0.98,4.49,2.53,6.17,4.49c1.68,1.96,2.67,4.35,3.09,7.15h-5.19
		c-0.84-3.09-2.24-5.33-4.49-6.45c-2.24-1.26-4.63-1.82-7.44-1.82c-1.82,0-3.51,0.42-5.05,1.12c-1.54,0.7-2.95,1.68-4.21,3.09
		s-2.1,3.09-2.81,5.19s-0.98,4.35-0.98,6.87c0,5.05,1.12,8.98,3.23,11.78c1.12,1.54,2.53,2.81,4.35,3.65
		c1.82,0.84,3.65,1.26,5.75,1.4c3.23-0.14,6.03-1.12,8.28-2.95c1.68-1.4,2.81-2.81,3.51-4.49c0.7-1.68,0.98-3.79,0.98-6.17
		L186.4,259.22z"/>
	<path id="XMLID_12_" class="st1" d="M207.03,268.06c0.14-1.54,0.42-2.81,0.98-3.93c0.56-1.12,1.54-2.24,2.95-3.09
		s3.51-1.54,6.17-1.96c0.42,0,1.26-0.14,2.67-0.14c1.4,0,2.53-0.14,3.51-0.28c0.84-0.14,1.68-0.56,2.24-0.98
		c0.7-0.56,0.98-1.26,0.98-2.38c0-3.23-2.24-4.91-6.73-5.05c-4.21,0-6.45,1.82-6.73,5.61h-4.49c0-1.68,0.42-3.23,1.26-4.77
		c0.84-1.54,2.1-2.67,3.93-3.51c1.68-0.84,3.79-1.4,6.31-1.4c1.96,0,3.93,0.28,5.61,0.84c1.68,0.56,3.09,1.4,4.07,2.53
		c0.98,1.12,1.54,2.67,1.54,4.35v16.55c0,0.84,0.14,1.4,0.28,1.82c0.14,0.28,0.56,0.56,1.12,0.56c0.84,0,1.26-0.14,1.82-0.28v3.51
		c-0.56,0.42-1.68,0.56-3.23,0.56c-2.81,0-4.35-1.4-4.49-4.35c-2.67,2.95-6.17,4.49-10.38,4.63c-1.68,0-3.23-0.42-4.77-1.12
		c-1.4-0.7-2.53-1.82-3.37-3.09c-0.84-1.26-1.12-2.53-1.26-3.93C207.03,268.48,207.03,268.2,207.03,268.06z M226.39,261.05
		c-0.28,0.42-1.12,0.7-2.53,0.98c-1.4,0.28-3.09,0.56-5.05,0.98c-1.96,0.42-3.65,0.98-4.77,1.82c-1.12,0.84-1.82,2.1-1.82,3.65
		c0,2.53,1.96,4.35,5.05,4.35c1.4,0,2.67-0.42,4.07-0.98c1.4-0.56,2.53-1.26,3.51-2.24c0.98-0.98,1.4-2.1,1.4-3.51L226.39,261.05z"
		/>
	<path id="XMLID_13_" class="st1" d="M236.77,275.92v-29.04h4.49v4.07h0.14c2.38-3.23,5.33-4.91,8.84-4.91
		c2.24,0,3.93,0.42,5.05,1.4c1.12,0.84,1.96,1.96,2.67,3.37c1.4-1.68,2.81-2.81,3.93-3.51c1.26-0.7,2.81-1.12,4.91-1.12
		c1.26,0,2.67,0.28,4.07,0.84c1.4,0.56,2.53,1.54,3.51,2.95c0.98,1.4,1.54,3.51,1.54,5.89v20.06H271v-18.8
		c0-4.49-1.82-6.73-5.47-6.73c-1.26,0-2.53,0.42-3.51,1.12s-1.82,1.68-2.38,2.95c-0.56,1.26-0.84,2.53-0.84,3.79v17.68h-4.91v-20.06
		c0-1.54-0.42-2.81-1.12-3.79c-0.7-1.12-1.82-1.54-3.51-1.54c-1.12,0-2.24,0.28-3.51,0.84c-1.12,0.56-2.24,1.54-2.95,3.09
		c-0.84,1.4-1.26,3.37-1.26,5.75v15.85L236.77,275.92z"/>
	<path id="XMLID_16_" class="st1" d="M300.04,266.8h5.05c-0.14,1.12-0.7,2.39-1.54,4.07c-0.84,1.54-2.1,2.95-3.65,3.93
		c-0.84,0.56-1.82,1.12-3.09,1.4c-1.26,0.42-2.81,0.56-4.91,0.56c-2.24,0-4.21-0.42-5.89-1.4c-1.68-0.84-3.23-2.1-4.35-3.79
		c-1.82-2.67-2.67-5.75-2.67-9.4c0-2.53,0.42-4.91,1.12-7.15c0.7-2.1,1.82-3.93,3.23-5.33c1.26-1.26,2.81-2.38,4.35-3.09
		c1.68-0.7,3.37-1.12,5.05-1.12c1.4,0,2.67,0.28,4.07,0.7c1.26,0.42,2.53,1.12,3.65,2.1c1.12,0.98,1.96,2.1,2.81,3.51
		c1.54,2.95,2.24,6.73,2.24,11.08h-21.46c0,3.09,0.7,5.47,2.1,7.01c1.4,1.68,3.51,2.53,6.31,2.53c1.4,0,2.67-0.28,3.93-0.98
		c1.12-0.56,1.96-1.4,2.67-2.24C299.62,268.34,299.9,267.5,300.04,266.8z M284.05,259.08h16.13c-0.14-2.53-0.84-4.63-2.1-6.17
		c-1.26-1.68-3.23-2.38-6.03-2.38c-1.4,0-2.81,0.42-4.07,1.26c-1.26,0.84-2.24,1.82-2.95,3.23
		C284.47,256.28,284.05,257.68,284.05,259.08z"/>
	<path id="XMLID_17_" class="st1" d="M329.64,255.16h-4.77c0-3.23-2.24-4.91-6.87-4.91c-0.7,0-1.54,0.14-2.38,0.28
		s-1.68,0.56-2.39,1.26c-0.7,0.56-0.98,1.54-0.98,2.53c0,0.84,0.14,1.4,0.56,1.82c0.28,0.42,0.84,0.84,1.54,1.12
		c0.7,0.28,1.82,0.56,3.23,0.84c1.12,0.28,2.39,0.56,4.07,0.98c1.68,0.42,3.23,0.98,4.49,1.54c1.26,0.56,2.39,1.4,3.23,2.53
		c0.84,0.98,1.26,2.39,1.26,3.93c0,1.96-0.56,3.65-1.54,5.19c-0.98,1.4-2.39,2.53-4.07,3.37c-1.68,0.84-3.65,1.12-5.89,1.12
		c-3.51,0-6.17-0.56-8-1.68c-1.82-1.12-2.95-2.39-3.51-3.79s-0.84-3.09-0.98-4.77h4.77c0.14,1.68,0.7,3.09,1.68,4.21
		c0.98,1.12,3.09,1.68,6.03,1.68c1.82,0,3.37-0.42,4.63-1.12c1.26-0.7,1.96-1.96,1.96-3.37c0-1.12-0.42-1.96-1.26-2.53
		c-0.84-0.56-2.39-1.12-4.49-1.68c-1.4-0.28-2.81-0.56-4.35-0.98c-1.54-0.28-2.81-0.84-3.93-1.26c-1.12-0.56-2.1-1.26-2.95-2.39
		c-0.7-0.98-1.12-2.24-1.12-3.79c0-2.1,0.56-3.79,1.54-5.19c0.98-1.4,2.39-2.38,3.93-3.09c1.68-0.7,3.51-0.98,5.47-0.98
		c3.09,0,5.47,0.56,7.15,1.82c1.68,1.12,2.81,2.53,3.23,3.79C329.36,253.05,329.64,254.17,329.64,255.16z"/>
	<path id="XMLID_20_" class="st2" d="M503.89,236.78v0.98h-1.96v5.33h-1.12v-5.33h-1.96v-0.98H503.89z M506.69,236.78l1.82,4.63
		l1.82-4.63h1.68v6.31h-1.12v-5.19l-1.96,5.19h-0.84l-1.96-5.19v5.19h-1.12v-6.31H506.69z"/>
	<path id="XMLID_24_" d="M77.68,275.92H59.72v-39.84h19.64c2.53,0,4.63,0.42,6.45,1.26c1.68,0.84,3.09,1.96,3.93,3.51
		c0.84,1.4,1.4,3.09,1.54,4.91c0,4.63-1.54,7.58-4.77,8.84c2.1,0.7,3.65,1.96,4.63,3.79s1.54,3.93,1.54,6.31
		c-0.14,1.96-0.7,3.65-1.4,5.19c-0.7,1.4-1.68,2.67-2.95,3.51c-1.26,0.98-2.81,1.54-4.49,1.96
		C82.03,275.64,79.92,275.92,77.68,275.92z M67.72,242.95v8.7h10.1c1.68,0,3.09-0.42,4.07-1.12c0.98-0.84,1.4-1.82,1.4-3.23
		c0-1.4-0.42-2.53-1.26-3.23c-0.84-0.7-2.38-1.12-4.63-1.12L67.72,242.95L67.72,242.95z M67.72,269.04h10.66
		c1.68,0,3.09-0.42,4.21-1.26s1.68-2.24,1.82-4.21c0-1.96-0.56-3.37-1.82-4.07c-1.12-0.84-2.53-1.12-4.07-1.12H67.86L67.72,269.04
		L67.72,269.04z"/>
	<rect id="XMLID_25_" x="95.35" y="235.94" width="7.86" height="39.84"/>
	<path id="XMLID_28_" d="M107.42,242.81v-7.3h7.86v7.3H107.42z M107.42,275.92v-29.6h7.86v29.6H107.42z"/>
	<path id="XMLID_29_" d="M122.01,269.89v-17.96h-3.93v-5.61h3.93v-8h7.86v8h4.77v5.61h-4.77v15.99c0,0.98,0.14,1.68,0.42,1.96
		c0.28,0.28,1.26,0.42,2.67,0.42c0.14,0,0.56,0,0.84,0c0.42,0,0.7,0,0.7,0v5.89c-0.42,0-0.98,0-1.82,0s-1.4,0-1.82,0h-0.98
		c-2.24,0-3.93-0.28-5.05-0.84c-1.12-0.56-1.96-1.26-2.24-2.1C122.15,272.41,122.01,271.29,122.01,269.89z"/>
	<polygon id="XMLID_30_" points="137.3,269.89 152.45,252.63 137.72,252.63 137.72,246.32 162.27,246.32 162.27,252.77 
		147.26,269.47 162.84,269.47 162.84,275.92 137.3,275.92 	"/>
	<path id="XMLID_31_" class="st2" d="M335.82,264.13h3.51c0.56,6.45,4.49,9.68,11.5,9.68c3.37,0,5.89-0.7,7.58-2.24
		c1.68-1.54,2.53-3.51,2.53-5.89c0-2.67-0.98-4.63-2.81-5.61c-1.96-0.98-4.91-1.96-8.98-2.95c-4.07-0.98-7.15-2.24-9.26-3.79
		c-2.1-1.54-3.09-3.93-3.09-7.44c0-1.4,0.28-2.67,0.84-4.07c0.56-1.26,1.4-2.53,2.53-3.51c1.12-0.98,2.53-1.82,4.21-2.38
		c1.68-0.56,3.65-0.84,5.75-0.84c2.24,0,4.07,0.28,5.75,0.98c1.68,0.7,3.09,1.54,4.21,2.67c1.12,1.12,1.96,2.38,2.53,3.79
		c0.56,1.4,0.84,2.95,0.84,4.63h-3.65c0-1.96-0.42-3.51-1.4-4.91c-0.84-1.4-2.1-2.38-3.51-2.95c-1.54-0.7-3.09-0.98-4.91-0.98
		c-3.23,0-5.75,0.7-7.44,2.24c-1.68,1.54-2.53,3.37-2.53,5.47c0,0.28,0,0.7,0.14,1.12c0.42,2.24,1.4,3.65,3.23,4.49
		c1.82,0.7,4.77,1.54,8.84,2.53c4.07,0.98,7.15,2.24,9.26,3.79c1.96,1.54,3.09,4.07,3.09,7.44c0,2.39-0.56,4.49-1.68,6.31
		c-1.12,1.68-2.81,3.09-4.91,3.93c-2.24,0.98-4.77,1.4-7.86,1.4c-2.81,0-5.33-0.56-7.44-1.54c-2.24-0.98-3.93-2.53-5.19-4.49
		C336.52,269.18,335.82,266.8,335.82,264.13z"/>
	<path id="XMLID_32_" class="st2" d="M370.47,250.25h-4.07v-2.67h4.07v-8h3.23v8h5.33v2.67h-5.33v21.04c0,0.84,0.28,1.54,0.7,1.82
		c0.42,0.42,1.12,0.7,2.1,0.7c0.14,0,0.42,0,0.56-0.14c0.28,0,0.42,0,0.7-0.14c0.14,0,0.42,0,0.7-0.14c0.28,0,0.56,0,0.84-0.14v2.67
		c-1.26,0.42-2.53,0.56-3.93,0.56c-3.23,0-4.91-1.82-4.91-5.33V250.25z"/>
	<path id="XMLID_33_" class="st2" d="M401.89,272.13c-2.38,2.95-5.19,4.49-8.42,4.77c-2.1,0-4.07-0.28-5.61-0.98
		c-1.54-0.56-2.95-1.68-3.79-3.23c-0.98-1.54-1.4-3.65-1.4-6.31v-18.8h3.37v18.8c0,2.81,0.7,4.77,2.1,5.89
		c1.4,1.12,3.23,1.54,5.61,1.54c1.54,0,2.95-0.42,4.21-1.26s2.24-1.96,2.95-3.65c0.7-1.54,1.12-3.37,1.12-5.47v-15.85h3.37v28.48
		h-3.51V272.13z"/>
	<path id="XMLID_36_" class="st2" d="M433.32,270.73c-0.84,1.82-2.24,3.23-4.21,4.35c-1.96,1.12-4.07,1.68-6.17,1.68
		c-2.24,0-4.21-0.56-6.03-1.4s-3.37-2.39-4.63-4.63c-1.26-2.1-1.82-5.05-1.82-8.56c0-3.37,0.56-6.17,1.68-8.42
		c1.12-2.24,2.53-4.07,4.35-5.19c1.82-1.12,3.79-1.68,5.89-1.82c2.24,0,4.35,0.42,6.31,1.26c1.96,0.84,3.51,2.24,4.77,4.07v-15.71
		h3.37v39.7h-3.37L433.32,270.73L433.32,270.73L433.32,270.73z M413.96,261.19c0,3.09,0.42,5.47,1.26,7.3s1.96,3.23,3.37,4.07
		c1.4,0.84,2.95,1.26,4.77,1.26s3.51-0.42,5.05-1.4c1.54-0.98,2.67-2.24,3.51-4.07s1.26-3.93,1.26-6.45c0-1.96-0.28-3.79-0.84-5.33
		s-1.4-2.81-2.39-3.79c-0.98-0.98-2.1-1.82-3.37-2.24c-1.26-0.56-2.67-0.7-4.07-0.7c-1.68,0.14-3.23,0.7-4.49,1.54
		c-1.26,0.84-2.24,2.24-3.09,3.93C414.38,256.84,413.96,258.8,413.96,261.19z"/>
	<path id="XMLID_39_" class="st2" d="M443.28,236.36h3.65v4.91h-3.65V236.36z M443.42,247.44h3.23v28.48h-3.23V247.44z"/>
	<path id="XMLID_42_" class="st2" d="M451.28,261.33c0-3.09,0.56-5.75,1.68-7.86c1.12-2.24,2.67-3.93,4.77-5.05
		c1.96-1.12,4.35-1.68,6.87-1.68c2.81,0,5.05,0.56,7.01,1.82c1.96,1.26,3.51,2.95,4.49,5.33c0.98,2.24,1.54,5.05,1.54,8.14
		c0,2.38-0.42,4.49-1.12,6.45c-0.7,1.82-1.68,3.37-2.95,4.63c-1.26,1.26-2.67,2.24-4.21,2.81c-1.54,0.56-3.23,0.98-5.05,0.98
		c-2.39,0-4.63-0.56-6.59-1.54c-1.96-1.12-3.65-2.81-4.91-5.05C451.84,267.78,451.28,264.84,451.28,261.33z M454.79,261.75
		c0,2.53,0.42,4.77,1.26,6.59c0.84,1.82,1.96,3.23,3.37,4.07c1.4,0.98,3.09,1.4,4.77,1.4c1.68,0,3.37-0.42,4.91-1.12
		c1.54-0.84,2.81-2.1,3.79-3.79c0.98-1.82,1.4-4.07,1.4-6.87c0-2.38-0.28-4.49-0.98-6.31s-1.82-3.23-3.23-4.35
		c-1.54-0.98-3.37-1.54-5.75-1.54c-1.68,0-3.23,0.42-4.63,1.4c-1.4,0.98-2.53,2.24-3.51,4.07
		C455.35,256.98,454.79,259.08,454.79,261.75z"/>
	<path id="XMLID_43_" class="st2" d="M498.84,255.72c-0.42-1.96-1.26-3.51-2.67-4.49c-1.4-0.98-3.09-1.54-5.19-1.54
		c-1.68,0-3.09,0.42-4.21,1.26c-1.26,0.84-1.96,1.96-2.1,3.51c0.14,0.7,0.28,1.12,0.28,1.26c0.28,1.26,0.98,2.1,2.39,2.67
		c1.4,0.56,3.37,1.26,6.03,1.82c2.53,0.56,4.35,1.12,5.05,1.54c1.54,0.84,2.81,1.82,3.51,2.81c0.7,0.98,1.12,2.53,1.12,4.35
		c0,1.82-0.56,3.23-1.82,4.49c-1.12,1.26-2.67,2.1-4.49,2.67c-1.82,0.56-3.51,0.84-5.19,0.84c-1.96,0-3.79-0.42-5.33-1.12
		c-1.68-0.84-2.95-1.96-3.93-3.37c-0.98-1.54-1.54-3.23-1.68-5.19h3.37c0.42,1.54,0.84,2.95,1.54,3.79
		c0.56,0.84,1.26,1.54,1.96,1.96c0.7,0.42,1.68,0.7,2.67,0.84c0.28,0,0.56,0.14,1.12,0.14c0.42,0,0.84,0,1.12,0.14
		c1.82,0,3.51-0.56,5.05-1.4c1.54-0.84,2.24-2.1,2.24-3.93c0-1.68-0.84-2.95-2.53-3.93c-0.84-0.56-2.53-0.98-4.91-1.54
		c-2.39-0.56-4.35-0.98-5.61-1.4c-1.26-0.42-2.53-1.12-3.65-2.24c-1.12-1.12-1.68-2.67-1.68-4.77c0-1.68,0.42-3.23,1.4-4.35
		c0.84-1.26,2.1-2.1,3.65-2.81c1.54-0.56,3.09-0.98,4.91-0.98c0.56,0,0.84,0,1.12,0c2.95,0.28,5.19,0.98,6.87,2.38
		c1.68,1.4,2.67,3.65,3.09,6.59L498.84,255.72z"/>
</g>
</svg>
