<?xml version="1.0" encoding="utf-8"?>
<!-- Generator: Adobe Illustrator 24.3.0, SVG Export Plug-In . SVG Version: 6.00 Build 0)  -->
<svg version="1.1" id="Layer_1" xmlns="http://www.w3.org/2000/svg" xmlns:xlink="http://www.w3.org/1999/xlink" x="0px" y="0px"
	 viewBox="0 0 512 512" style="enable-background:new 0 0 512 512;" xml:space="preserve">
<style type="text/css">
	.st0{fill:url(#XMLID_5_);}
	.st1{fill:#00A3E3;}
	.st2{fill:#F2F2F2;}
</style>
<g id="XMLID_1_">
	
		<linearGradient id="XMLID_5_" gradientUnits="userSpaceOnUse" x1="-698.5741" y1="798.9148" x2="-697.1714" y2="798.9148" gradientTransform="matrix(150.0459 0 0 150.0459 104917.7422 -119623.8281)">
		<stop  offset="0" style="stop-color:#F6F7F7"/>
		<stop  offset="0.8517" style="stop-color:#BEC0C2"/>
		<stop  offset="1" style="stop-color:#BBBDBF"/>
	</linearGradient>
	<path id="XMLID_3_" class="st0" d="M268.2,181.39c-1.68,0-3.23,0-4.91,0c-119.37,3.37-155.28,101.7-155.42,136.07v0.7
		c0,0.14,0,0.42,0,0.56c6.45-65.09,66.35-126.81,152.06-126.81c0.42,0,0.84,0,1.26,0c49.38,0.42,94.26,23.71,120.21,54.85
		c1.96-5.75,7.15-9.68,11.92-11.08C363.17,203.14,318,181.39,268.2,181.39"/>
	<path id="XMLID_4_" d="M93,296.7c0,8,1.54,16.41,7.01,22.86c5.47,6.45,14.73,10.94,30.16,10.94s24.83-4.35,30.16-10.94
		c5.47-6.45,7.01-15.01,7.01-22.86v-50.36c0-1.26-0.98-2.38-2.38-2.38h-8.14c-1.26,0-2.38,1.12-2.38,2.38v50.36
		c0,12.2-4.91,20.9-24.41,21.04c-19.5-0.14-24.27-8.84-24.27-21.04v-50.36c0-1.26-1.12-2.38-2.38-2.38h-8.14
		c-1.26,0-2.38,1.12-2.38,2.38L93,296.7L93,296.7z"/>
	<path id="XMLID_8_" d="M2.38,328.82c-1.26,0-2.38-0.98-2.38-2.38v-79.96c0-1.26,0.98-2.38,2.38-2.38h26.37h16.83
		c12.48,0,27.21,7.01,27.21,23.29c0,8.98-6.45,13.75-9.54,16.83c4.77,2.38,11.22,9.54,11.22,19.92c0,8.14-3.09,14.31-8.42,18.52
		c-5.19,4.21-12.48,6.31-20.62,6.31H25.11H2.38V328.82z M15.15,292.07c-1.26,0-2.38,1.12-2.38,2.38v19.22
		c0,1.26,1.12,2.38,2.38,2.38h30.3c11.22,0,16.13-4.07,16.13-11.92c0-7.29-3.65-11.92-16.13-11.92h-30.3V292.07z M45.45,279.31
		c8.14,0,14.45-4.77,14.45-11.92c0-6.45-6.03-10.38-14.45-10.38h-30.3c-1.26,0-2.38,1.12-2.38,2.38v17.67
		c0,1.26,1.12,2.38,2.38,2.38L45.45,279.31z"/>
	<path id="XMLID_9_" d="M255.02,305.12c0,1.26-0.7,1.54-1.4,0.56l-46.71-59.76c-0.84-0.98-2.52-1.82-3.79-1.82h-8
		c-1.26,0-2.38,1.12-2.38,2.38v79.96c0,1.26,0.98,2.38,2.38,2.38h8.14c1.26,0,2.38-1.12,2.38-2.38V267.8c0-1.26,0.7-1.54,1.4-0.56
		l46.57,59.62c0.84,0.98,2.52,1.82,3.79,1.82h8c1.26,0,2.38-0.98,2.38-2.38v-79.96c0-1.26-1.12-2.38-2.38-2.38h-8
		c-1.26,0-2.38,1.12-2.38,2.38V305.12z"/>
	<path id="XMLID_10_" d="M404.27,275.38L404.27,275.38h-8.14c-1.26,0-2.38,0.98-2.38,2.38v48.68c0,1.26,1.12,2.38,2.38,2.38h0.42
		h7.43h0.42c1.26,0,2.38-1.12,2.38-2.38v-48.68C406.65,276.5,405.53,275.38,404.27,275.38"/>
	<path id="XMLID_11_" d="M443.69,316.06c-1.26,0-2.38-1.12-2.38-2.38v-20.2c0-1.26,1.12-2.38,2.38-2.38h32.12
		c1.26,0,2.38-1.12,2.38-2.38v-8.14c0-1.26-1.12-2.38-2.38-2.38h-32.12c-1.26,0-2.38-0.98-2.38-2.38v-16.69
		c0-1.26,1.12-2.38,2.38-2.38h48.96c1.26,0,2.38-1.12,2.38-2.38v-8.14c0-1.26-1.12-2.38-2.38-2.38h-61.72
		c-1.26,0-2.38,1.12-2.38,2.38v79.96c0,1.26,1.12,2.38,2.38,2.38h63.82c1.26,0,2.38-1.12,2.38-2.38v-8.14
		c0-1.26-1.12-2.38-2.38-2.38L443.69,316.06z"/>
	<path id="XMLID_18_" d="M334.83,254.76c12.48,0,19.08,5.33,23.29,9.4c0.84,0.84,0.84,0.84,0.84,0.84c0.84,0.98,2.38,0.84,3.37,0
		l5.61-5.75c0.84-0.98,0.84-2.38,0-3.37l-0.84-0.84c-5.61-5.19-15.99-13.19-33.39-13.19c-13.47,0-25.11,4.91-33.24,12.91
		c-8.28,8-13.05,18.94-13.05,31.14c0,14.31,5.89,25.39,14.59,32.96c8.7,7.43,20.2,11.36,31.42,11.36
		c24.97,0,35.21-11.08,37.45-14.03l0.28-0.42l0.28-0.42l0.14-0.14v-0.28v-2.67v-26.23c0-1.26-1.12-2.38-2.38-2.38h-29.88
		c-1.26,0-2.38,1.12-2.38,2.38v7.86c0,1.26,1.12,2.38,2.38,2.38h16.97c1.26,0,2.38,1.12,2.38,2.38v8.98c0,1.26-0.28,2.52-0.56,2.81
		l-0.42,0.28l-0.56,0.42c-3.37,2.38-9.96,6.17-23.29,6.17c-21.04,0-33.81-14.59-33.81-30.86
		C300.19,269.21,312.81,254.76,334.83,254.76"/>
	<path id="XMLID_20_" class="st1" d="M400.2,243.4c-6.73,0-12.06,5.33-12.06,12.06c0,6.59,5.33,12.06,12.06,12.06
		c6.59,0,12.06-5.33,12.06-12.06C412.27,248.73,406.79,243.4,400.2,243.4"/>
	<path id="XMLID_25_" class="st2" d="M507.23,248.02l1.4,0.14l0.84,1.26l-0.56,0.98l-0.7,0.28l0.84,0.56l0.28,0.84v0.42v0.42v0.28
		h-0.84v-0.14v-0.42l-0.42-1.12l-0.98-0.14h-0.7v1.96h-0.84v-5.19L507.23,248.02z M508.21,248.87l-1.12-0.14h-0.7v1.82h0.84
		l0.84-0.14l0.56-0.84L508.21,248.87 M510.6,253.92c-0.84,0.98-1.96,1.4-3.37,1.4c-1.26,0-2.38-0.42-3.23-1.4
		c-0.84-0.98-1.4-1.96-1.4-3.37c0-1.26,0.42-2.38,1.4-3.37c0.84-0.84,1.96-1.4,3.23-1.4c1.26,0,2.38,0.42,3.37,1.4
		c0.98,0.98,1.4,1.96,1.4,3.37S511.58,253.07,510.6,253.92 M504.57,247.74c-0.84,0.84-1.12,1.68-1.12,2.81
		c0,1.12,0.42,2.1,1.12,2.81c0.84,0.84,1.68,1.26,2.81,1.26c1.12,0,2.1-0.42,2.81-1.26c0.84-0.84,1.12-1.68,1.12-2.81
		c0-1.12-0.42-2.1-1.12-2.81c-0.84-0.84-1.68-1.26-2.81-1.26C506.25,246.48,505.27,246.9,504.57,247.74"/>
</g>
</svg>
