<?xml version="1.0" encoding="utf-8"?>
<!-- Generator: Adobe Illustrator 24.3.0, SVG Export Plug-In . SVG Version: 6.00 Build 0)  -->
<svg version="1.1" id="Layer_1" xmlns="http://www.w3.org/2000/svg" xmlns:xlink="http://www.w3.org/1999/xlink" x="0px" y="0px"
	 viewBox="0 0 512 512" style="enable-background:new 0 0 512 512;" xml:space="preserve">
<g id="XMLID_1_">
	<path id="XMLID_15_" d="M220.34,136.03c-0.7-11.78-12.62-15.99-49.09-15.85c-39.84,0.14-43.06,0.56-48.95,8
		c-15.43,18.94,22.44,30.44,54.85,28.76C188.92,156.23,221.18,150.62,220.34,136.03z M223.71,182.46
		c4.49-12.62-5.75-16.69-18.09-20.34c-10.94-3.23-46.43,2.67-67.05,4.07c-26.93,0.84-34.37,21.46-11.92,32.82
		C150.35,210.93,218.52,197.05,223.71,182.46z M236.47,212.34c2.1,10.66-44.61,10.94-63.68,19.64c-15.15,9.4-18.24,33.81-4.91,37.31
		c20.34,5.33,102.4-4.63,124.84-15.01c17.67-6.59,37.31-6.87,54.14-15.71c6.17-7.57-8.28-16.13-33.66-19.92
		c-44.75-6.73-39.84,1.54-37.31-61.58c1.12-30.3,0.7-53.3,2.81-55.83c3.51-4.21,26.79-1.4,59.9-1.68
		c82.34-0.7,82.9-0.98,87.11,46.15c1.4,15.99,4.07,24.69,8.84,29.6c6.87,6.87,7.01,6.87,20.06-3.65
		c19.22-15.29,29.32-45.87,28.05-84.3c-1.12-33.81-4.91-39.42-28.19-42.08c-12.48-1.4-17.81-0.14-25.95,5.89
		c-9.82,7.29-13.05,7.57-75.61,6.31c-35.91-0.7-66.77-2.81-68.45-4.63l-7.71-18.94l50.08,0.84l50.08,0.84
		c10.66,0.14-1.68-17.11-9.26-23.71c-11.64-8.7-74.9-13.75-137.61-11.08C131.13,5.16,129.3,5.3,122.99,11.89
		c-9.26,9.68-11.22,20.48-4.91,26.79c9.54,9.54,29.04,10.52,72.38,3.93c22.72-3.51,42.08-5.75,42.78-4.91
		c0.84,0.84-1.96,5.75-6.17,10.8c-7.15,8.84-10.24,9.68-51.34,13.19c-23.99,2.1-55.27,5.47-69.43,7.57
		c-23.99,3.51-26.23,3.23-33.52-3.65c-4.21-4.07-11.78-7.29-16.83-7.29c-16.69,0-32.96,27.63-23.99,40.4
		c1.54,2.1,3.65,16.55,4.21,32.82c1.12,32.26,9.68,56.25,20.06,56.25c3.37,0,10.8-8.14,17.67-19.36
		c10.24-16.83,11.78-22.58,12.06-43.9c0.42-24.41,0.42-24.55,9.12-22.3c11.36,2.81,10.1,2.81,76.03,0.42
		c21.04-0.98,51.76-3.23,56.81-2.1C229.46,137.29,227.07,176.01,236.47,212.34z M123.13,405.21c0.14-15.57,3.93-25.25,9.96-25.39
		c12.48-0.28,58.21-32.54,54.57-38.57c-1.96-3.23-19.36-1.12-47.55,5.75c-48.67,12.06-69.43,0.42-53.58-30.16
		c5.75-11.22,9.68-12.62,43.62-15.29c12.48-0.98,40.12-5.05,61.16-8.98c56.39-10.52,114.74-12.62,157.38-5.75
		c43.76,7.01,83.18,17.53,85,22.72c0.84,2.67-2.1,3.23-9.12,1.82c-19.92-3.93-158.65,8.56-168.61,17.95
		c-10.66,10.1-20.48,25.95-22.72,39.56c-0.7,4.07,73.36-5.19,74.9-8.56c-2.81-6.45-5.75-11.36-4.77-18.94
		c2.24-6.87,4.35-7.43,23.85-6.17c30.72,1.96,65.51,18.66,73.36,35.35c7.43,15.85,7.43,24.55-0.28,31.42
		c-15.01,13.61-36.33,10.38-53.58-8.14c-11.92-12.76-4.49-14.03-127.51,21.18c-26.93,7.71-44.89,14.31-50.78,13.61
		C151.75,426.67,126.22,425.97,123.13,405.21z M294.54,182.88c0-13.61,7.57-19.64,29.74-23.28c26.79-4.35,42.22-4.35,58.49,0.14
		c13.75,3.79,22.44,14.73,17.53,21.32c-7.57,10.1-60.18,20.62-65.51,19.92C321.34,199.57,296.79,201.26,294.54,182.88z
		 M300.43,144.17c-7.71-7.71-7.57-16.97,0.42-24.27c5.19-4.63,13.89-5.89,43.06-6.03c41.1-0.14,56.39,4.21,54.71,15.71
		c-1.54,11.08-17.11,16.27-56.25,18.38C311.38,149.92,305.62,149.36,300.43,144.17z M89.47,505.08c-8-10.1-7.71-34.93,0.42-44.05
		c5.47-6.03,8.14-6.59,31.98-7.43c28.19-0.98,32.4,1.12,22.72,10.8c-4.49,4.49-8.7,5.47-23.85,5.47h-18.38v13.19v13.19h15.99
		c18.94,0,31.14,5.33,31.28,13.75c0,1.12-12.34,1.96-27.35,1.96C95.92,511.96,94.8,511.68,89.47,505.08z M163.39,505.92
		c-4.91-5.33-5.75-9.12-5.75-28.9c0-17.67,0.84-22.86,3.65-22.86c6.59,0,10.8,8.56,12.2,24.69l1.26,15.99l18.66,1.26
		c18.52,1.26,27.35,5.19,27.35,12.2c0,2.81-5.61,3.65-25.81,3.65C171.39,511.96,168.58,511.39,163.39,505.92z M239.7,510.13
		c-10.1-4.07-14.45-31.42-7.29-45.31c4.91-9.54,8.28-10.66,31.7-10.66c17.67,0,19.78,0.56,24.83,6.87
		c8.14,10.38,7.86,37.31-0.7,45.17c-5.19,4.91-8.98,5.75-25.67,5.47C251.9,511.68,241.66,510.97,239.7,510.13z M278.55,483.06
		v-13.19h-15.71h-15.71v13.19v13.19h15.71h15.71V483.06z M308.71,505.5c-5.89-5.89-6.45-8.56-6.45-28.9
		c0-12.34,0.84-22.44,1.96-22.44c8,0.14,13.75,12.2,13.75,28.76v13.33h15.71c8.7,0,15.85-0.84,15.85-1.96
		c0.14-1.12,0.42-7.43,0.7-14.03c0.7-12.9,8-27.07,13.05-25.39c3.65,1.12,5.61,25.25,3.09,38.29c-2.81,15.15-9.12,18.94-31.7,18.94
		C317.41,511.96,314.46,511.25,308.71,505.5z M381.65,505.92c-4.63-5.05-5.75-9.26-5.75-23.57c0-23.43,4.77-28.19,28.05-28.19
		c9.12,0,16.55,0.98,16.55,2.24c0,4.49-10.1,11.22-19.36,12.76c-9.4,1.54-9.54,1.68-9.54,14.31v12.76h15.85h15.71V472.4
		c0-26.51,4.35-39,13.75-39.28c1.12,0,1.96,14.87,1.96,32.96c0,31.56-0.28,33.24-6.45,39.42c-5.75,5.75-8.7,6.45-25.81,6.45
		C389.79,511.96,386.56,511.11,381.65,505.92z"/>
</g>
</svg>
