<?xml version="1.0" encoding="utf-8"?>
<!-- Generator: Adobe Illustrator 26.5.0, SVG Export Plug-In . SVG Version: 6.00 Build 0)  -->
<svg version="1.1" id="Layer_1" xmlns="http://www.w3.org/2000/svg" xmlns:xlink="http://www.w3.org/1999/xlink" x="0px" y="0px"
	 viewBox="0 0 512 512" style="enable-background:new 0 0 512 512;" xml:space="preserve">
<g id="XMLID_1_">
	<path id="XMLID_23_" d="M0.05,298.49c0,0,0.56-0.42,1.12-0.98c7.85-7.01,14.02-17.67,18.79-32.25c1.12-3.37,2.24-7.43,6.17-21.46
		c0.7-2.66,1.54-5.61,1.82-6.73c0.28-0.98,0.56-1.96,0.42-1.96c-0.14,0-1.82-0.98-3.93-2.1s-3.93-2.1-3.93-2.1s7.85,0,20.19,0h20.33
		v0.14c-0.42,1.54-2.38,9.26-2.52,9.26c0,0-0.98-1.12-2.24-2.52l-2.24-2.52h-7.43h-7.43l-2.24,8.55c-1.26,4.77-2.24,8.55-2.24,8.69
		v0.14h8.41h8.41l1.54-1.12c0.84-0.7,1.68-1.26,1.96-1.54l0.42-0.28l-0.14,0.42c-0.98,3.37-3.23,10.94-3.23,10.94
		s-0.42-0.98-0.98-2.24l-0.84-2.24h-2.1c-1.12,0-4.91,0-8.41,0h-6.31l-0.98,2.94c-1.26,3.65-1.68,5.19-2.52,7.15
		c-5.47,13.88-14.86,24.54-26.08,30.01C2.3,297.65-0.09,298.63,0.05,298.49L0.05,298.49z M312.07,298.35c0-0.14,0.42-0.56,0.84-0.98
		c2.52-2.8,4.21-5.19,5.89-8.55c2.1-3.93,2.94-6.45,4.91-13.6c0.28-1.26,3.23-11.92,6.31-23.7c3.09-11.78,6.17-23.14,6.59-25.1
		l0.98-3.65v-0.56c-0.14-1.82-2.1-3.37-6.17-4.49c-0.56-0.14-1.12-0.28-1.12-0.28s0.14-0.42,0.28-0.84l0.28-0.84h22.44h22.44
		l0.7-0.14c2.1-0.28,3.37-0.7,5.19-1.82l0.56-0.28v0.14c0,0-0.28,4.49-0.7,9.96c-0.42,5.47-0.7,9.96-0.7,9.96v0.14l-0.7,0.14
		c-0.42,0.14-0.7,0.14-0.84,0.14h-0.14l-0.14-0.42c-0.14-0.7-0.56-1.96-0.98-2.8c-2.66-6.31-8.97-10.24-17.81-11.22
		c-1.54-0.14-3.51-0.28-4.91-0.28H354L350.36,233c-1.96,7.57-3.51,13.74-3.51,13.74c0.14,0.14,9.82-3.51,12.76-4.91l1.12-0.56
		l0.84,0.14c1.68,0.28,2.8,0.7,4.77,1.68c4.35,2.24,6.59,4.77,7.71,8.97l0.14,0.7l-5.75,1.96c-3.09,1.12-5.75,1.96-5.75,1.96
		s0-0.42-0.14-0.84c-0.28-3.37-1.68-5.61-4.49-7.15c-0.7-0.42-1.26-0.56-2.38-0.7l-0.84-0.14h-1.54c-1.68,0-2.94,0.14-4.35,0.42
		c-1.26,0.28-2.66,0.7-3.09,0.84c-0.14,0-7.99,28.89-9.26,33.66l-0.7,2.66v0.98v0.98l0.28,0.56c0.28,0.7,1.12,1.4,1.54,1.68
		c0.14,0.14,0.56,0.28,0.84,0.28l0.42,0.14l0.14,0.42c0,0.28,0.14,0.42,0.14,0.42s-6.17,1.68-13.6,3.65
		C318.38,296.81,312.21,298.49,312.07,298.35L312.07,298.35L312.07,298.35L312.07,298.35z M416.97,279.42
		c-1.12-0.14-2.52-0.56-3.37-0.98c-1.82-0.84-2.94-2.24-3.37-3.93l-0.14-0.56v-1.26c0-1.26,0.14-1.96,0.42-3.93
		c0.28-1.4,0.56-2.66,4.49-17.95c1.96-7.43,3.51-13.6,3.51-13.6v-0.14h-4.07h-4.07v-0.14c0,0,0.28-1.12,0.56-2.38l0.56-2.24h4.07
		h4.07l0.84-2.66c0.84-2.94,1.26-4.49,1.4-5.61l0.14-0.84l-0.14-0.56c-0.14-0.98-0.56-1.68-1.4-2.66c-0.28-0.28-0.42-0.42-0.42-0.56
		c0,0,0.42-0.14,0.7-0.42c1.54-0.84,5.19-2.1,8.69-3.09c2.94-0.84,7.57-1.96,7.71-1.82c0,0-0.98,4.07-2.38,8.97
		c-1.26,4.91-2.38,8.97-2.38,8.97v0.14h5.05h5.05v0.14c0,0.14-1.12,4.63-1.26,4.63c0,0-2.38,0-5.19,0h-4.77l-0.28,0.84
		c-0.42,1.54-6.17,24.12-6.59,25.52c-0.14,0.7-0.42,1.68-0.42,2.1l-0.14,0.84v0.7v0.7l0.28,0.56c0.42,0.7,0.84,1.26,1.54,1.54
		c0.7,0.42,1.26,0.42,2.38,0.56h0.98l0.7-0.14c0.98-0.14,2.1-0.56,3.37-1.12c0.56-0.28,1.12-0.56,1.12-0.42c0,0-0.28,0.56-0.56,1.12
		c-1.68,2.94-2.8,4.49-4.91,6.03c-2.38,1.82-5.19,2.94-8.13,3.37C419.91,279.42,417.53,279.42,416.97,279.42L416.97,279.42z
		 M465.77,278.58c0,0,0.14-0.42,0.28-0.98c1.4-5.05,4.35-9.4,8.41-12.9c0.56-0.42,1.26-0.98,1.26-0.98s0,0.42-0.14,0.98
		c-0.14,0.7-0.28,1.26-0.28,1.96v0.98l0.14,0.56c0.56,2.94,2.1,4.91,4.63,5.89c1.26,0.56,2.52,0.84,4.35,0.84
		c1.26,0,1.82,0,2.94-0.28c3.93-0.98,7.01-4.07,7.57-7.71l0.14-0.7v-0.84c0-1.12-0.14-1.54-0.56-2.38c-0.42-0.7-0.84-1.26-1.68-1.96
		c-1.12-0.84-2.1-1.26-7.43-3.09c-3.23-1.12-3.93-1.4-5.05-1.96c-1.82-0.84-2.94-1.96-3.79-3.23c-0.14-0.14-0.28-0.7-0.42-1.12
		l-0.28-0.7v-0.98v-0.98l0.14-0.7c0.42-2.24,1.54-4.35,3.65-6.31c3.65-3.65,9.54-6.03,14.44-6.03c0.7,0,2.8,0.14,4.49,0.28
		c3.23,0.28,6.87,0.42,8.27,0.14c1.68-0.28,2.94-0.7,4.63-1.68l0.56-0.28v0.14c-0.14,0.7-0.98,2.66-1.54,3.79
		c-1.54,2.94-3.79,5.33-5.33,5.47h-0.42l-0.28-0.14c-0.42-0.14-0.98-0.56-2.66-2.24c-2.1-1.96-2.8-2.52-4.07-2.8l-0.42-0.14h-1.26
		h-1.26l-0.56,0.14c-2.1,0.56-3.79,2.1-4.49,3.93c-0.28,0.7-0.42,1.26-0.42,2.1c0,1.26,0.42,2.24,1.26,3.23
		c0.98,1.12,2.66,1.96,6.59,3.09c2.1,0.56,2.94,0.84,4.21,1.4c1.96,0.84,3.65,1.82,4.77,2.94c1.4,1.4,2.1,2.8,2.38,4.91l0.14,0.84
		l-0.14,0.98c-0.56,6.03-4.07,10.66-10.38,13.6c-3.51,1.68-7.15,2.38-10.38,2.38c-1.82-0.14-3.51-0.28-7.43-1.12l-2.38-0.42h-1.4
		c-2.66,0-3.93,0.28-8.27,1.68C466.61,278.44,465.91,278.72,465.77,278.58C465.77,278.72,465.77,278.72,465.77,278.58L465.77,278.58
		z M374.34,278.01c-2.94-0.28-5.33-1.26-6.87-2.8c-0.98-0.98-1.54-1.82-1.96-3.23l-0.14-0.7v-1.4v-1.4l0.14-0.7
		c0.7-2.8,2.1-5.19,4.35-7.29c4.21-4.07,10.8-6.87,18.23-7.57l1.26-0.14h3.09h3.09l0.42-1.82c0.98-3.79,1.26-4.91,1.4-5.75
		c0.28-1.96,0.28-2.94-0.28-3.93c-0.7-1.4-1.96-2.1-3.93-2.1c-2.38,0-3.51,0.7-7.71,4.77c-2.24,2.1-3.51,3.09-4.77,3.65
		c-1.68,0.7-3.37,0.84-4.63,0.14c-1.12-0.56-1.96-1.68-2.38-3.23c-0.28-0.98-0.42-1.82-0.42-3.09v-1.26l0.14-0.84
		c0.28-1.26,0.56-2.8,0.84-2.94c0,0,0.28,0.14,0.7,0.28c1.68,1.12,3.09,1.54,5.33,1.54c1.54,0,2.24-0.14,4.91-0.7
		c3.09-0.7,4.07-0.98,5.75-1.26c2.24-0.42,2.94-0.42,4.91-0.42h1.82l0.98,0.14c3.09,0.42,5.75,1.4,7.85,2.8l0.84,0.56l0.84,0.84
		l0.84,0.84l0.28,0.56c0.42,0.7,0.7,1.4,0.84,2.1l0.14,0.56v0.84c-0.14,1.54-0.28,2.24-2.94,12.76c-2.94,11.36-3.09,12.2-3.09,14.44
		c0,1.96,0.42,3.09,1.82,4.63l0.56,0.56h-7.43h-7.43l-0.28-0.42c-0.7-0.84-0.84-1.68-0.98-3.09l-0.14-0.98l-0.7,0.42
		c-3.65,2.52-7.43,4.07-10.8,4.63C377.7,278.01,375.32,278.01,374.34,278.01L374.34,278.01z M386.82,272.27
		c0.7-0.14,2.38-0.7,3.23-0.98l0.56-0.28l2.24-8.41c1.26-4.63,2.1-8.41,2.1-8.41c-0.14-0.14-3.37,0.56-4.63,1.12
		c-3.37,1.12-6.31,2.94-8.13,5.05c-2.52,2.94-3.65,6.73-2.52,9.12C380.79,271.7,383.31,272.83,386.82,272.27z M447.26,278.01
		c-2.1-0.14-4.35-0.84-5.89-1.68c-3.93-2.1-6.17-5.75-6.87-10.66c-0.14-0.98-0.14-3.23,0-4.35c0.7-6.31,3.93-12.62,9.12-17.67
		c4.35-4.35,9.4-7.15,14.3-8.13c1.26-0.28,2.1-0.28,3.37-0.28c2.38,0,4.35,0.42,6.17,1.26c3.79,1.96,6.03,5.75,6.59,11.08v0.56
		l-0.42,0.28c-1.4,0.84-4.63,2.94-7.01,4.21c-6.31,3.51-13.18,6.59-18.93,8.55c-0.56,0.28-1.12,0.42-1.12,0.42
		c0,0.14,0.84,1.54,1.4,2.24c1.68,2.24,3.65,3.37,6.73,3.93l0.7,0.14h1.82c1.12,0,2.1,0,2.52-0.14c3.37-0.42,6.31-1.82,11.78-5.33
		c0.84-0.56,1.4-0.84,1.4-0.84s-1.54,2.8-2.24,3.79c-1.54,2.24-3.23,4.07-5.47,6.03c-4.21,3.51-8.69,5.61-13.6,6.31
		C450.63,278.01,448.1,278.01,447.26,278.01L447.26,278.01z M447.82,258.66c4.63-1.96,7.57-3.51,10.1-5.61
		c1.54-1.26,3.93-3.65,3.93-3.93s-0.42-2.24-0.7-3.23c-0.7-2.38-1.4-3.93-2.38-4.77c-0.84-0.84-2.24-1.12-3.65-0.84
		c-3.65,0.56-7.29,5.33-8.83,11.5c-0.56,2.24-0.7,3.65-0.56,5.05c0.14,1.12,0.28,2.52,0.42,2.52
		C446.28,259.22,446.98,258.94,447.82,258.66z M293.84,268.48c0-0.14-3.23-29.17-3.23-29.31c0,0,0-0.14,0,0
		c0,0-5.61,21.32-5.61,21.46c0,0,0.7,0.56,1.4,1.26l1.4,1.12h-2.38c-1.26,0-3.37,0-4.63,0h-2.38l1.4-1.12l1.4-1.12l0.14-0.28
		c0.14-0.28,7.01-26.92,7.01-27.07c0,0-0.7-0.56-1.54-1.26l-1.54-1.12h5.89c3.23,0,5.89,0,5.89,0s0.56,4.77,1.12,10.66
		s1.12,10.8,1.12,10.94v0.28l6.87-10.94l6.87-10.94h5.47h5.47l-0.14,0.14c0,0-0.7,0.56-1.4,1.12l-1.4,1.12v0.28
		c-0.56,1.96-7.01,27.07-7.01,27.07s0.7,0.56,1.4,1.26l1.4,1.12h-3.23c-1.82,0-4.77,0-6.59,0h-3.23l1.4-1.12l1.4-1.12l2.8-10.52
		c1.54-5.75,2.8-10.52,2.8-10.52s-4.21,6.45-9.26,14.44C298.19,261.89,293.98,268.48,293.84,268.48v0.14V268.48L293.84,268.48z
		 M173.24,267.92c0-0.28-2.8-28.61-2.94-28.61c0-0.14-1.12,3.79-2.8,10.52c-1.54,5.89-2.8,10.66-2.8,10.66v0.14l1.54,1.12l1.54,1.12
		h-2.38c-1.26,0-3.37,0-4.63,0h-2.38l1.54-1.12l1.54-1.12l3.51-13.6c1.96-7.57,3.51-13.74,3.51-13.74s-0.7-0.56-1.54-1.12l-1.4-1.12
		h5.89c3.23,0,5.89,0,5.89,0s0.56,4.91,1.12,10.94c0.56,5.89,1.12,10.8,1.12,10.94c0,0,3.09-4.77,6.87-10.8
		c3.79-6.03,6.87-10.94,6.87-10.94l0.14-0.14h5.47h5.47l-1.54,1.12l-1.54,1.12l-3.51,13.6c-1.96,7.43-3.51,13.6-3.51,13.6
		s0.7,0.56,1.4,1.26l1.54,1.12h-3.37c-1.82,0-4.77,0-6.59,0h-3.23l1.4-1.12c0.84-0.7,1.54-1.12,1.54-1.26
		c0-0.14,1.4-5.05,2.94-11.08c1.54-6.03,2.94-10.94,2.94-10.94s-4.35,6.59-9.68,14.86C177.59,261.33,173.24,268.06,173.24,267.92
		C173.24,268.06,173.24,267.92,173.24,267.92L173.24,267.92z M96.82,263.15c-2.66-0.56-4.49-1.82-6.45-4.91
		c-0.56-0.84-1.68-3.23-2.24-4.49c-0.98-2.38-2.38-6.03-2.24-6.17c3.09-0.84,6.59-2.94,8.41-5.19c0.98-1.26,1.54-2.38,1.82-3.65
		c0.14-0.7,0.14-1.82,0-2.38c-0.42-1.4-1.4-2.38-2.94-2.8l-0.56-0.14h-2.24h-2.24l-3.51,13.46c-1.96,7.43-3.51,13.6-3.51,13.6
		c0,0.14,0.42,0.56,1.12,1.26l1.12,1.12h-3.09c-1.68,0-4.63,0-6.31,0h-3.23l1.4-1.12c0.84-0.56,1.54-1.26,1.54-1.26
		c0-0.14,7.01-26.64,7.01-27.07v-0.28l-1.54-1.12l-1.54-1.12h0.7c0.42,0,4.07,0,8.27,0h7.57l0.98,0.14c1.82,0.28,3.65,0.7,4.91,1.26
		c1.68,0.84,2.94,2.1,3.51,3.51l0.14,0.56v0.98v0.98l-0.14,0.7c-0.28,1.68-0.98,2.66-2.38,4.21c-0.56,0.56-1.26,1.12-1.68,1.4
		c-1.96,1.4-4.49,2.8-6.45,3.23c-0.28,0.14-0.56,0.14-0.7,0.28c0,0,0,0.42,0.28,0.98c0.84,2.52,3.09,7.01,4.77,9.54
		c1.4,2.24,2.52,3.51,3.37,4.07l0.28,0.28l-0.42,0.14C99.62,263.15,97.94,263.29,96.82,263.15L96.82,263.15z M317.96,262.87
		c0-0.14,0.7-2.52,0.84-2.8v-0.14h-0.42c-0.14,0-0.42,0-0.42,0s0-0.14,0.14-0.28l0.14-0.28h1.12h1.12v0.14
		c0,0.14-0.14,0.28-0.14,0.28v0.14h-0.42h-0.42l-0.28,1.12c-0.14,0.56-0.42,1.26-0.42,1.54l-0.14,0.42h-0.28
		C318.1,262.87,317.96,262.87,317.96,262.87L317.96,262.87z M320.07,262.87c-0.14,0-0.28,0-0.28-0.14c0,0,0.28-0.84,0.56-1.82
		l0.56-1.68h0.56h0.56v0.14c0,0.14,0,0.56-0.14,1.12c0,0.56-0.14,0.98-0.14,0.98s0.28-0.42,0.56-1.12l0.56-1.12h0.56
		c0.28,0,0.56,0,0.56,0c0,0.14-1.12,3.51-1.12,3.51s-0.14,0-0.28,0h-0.28l0.42-1.12c0.14-0.56,0.28-1.12,0.28-1.12
		s-0.28,0.56-0.7,1.12l-0.7,1.26h-0.28c-0.14,0-0.28,0-0.28-0.14c0,0,0-0.56,0.14-1.26c0-0.7,0.14-1.12,0.14-1.26
		s-0.14,0.42-0.28,0.98c-0.42,1.26-0.42,1.54-0.56,1.54C320.35,262.87,320.21,262.87,320.07,262.87L320.07,262.87z M56.01,262.87
		c0,0,0.56-0.56,1.4-1.12c0.7-0.56,1.4-1.12,1.4-1.12c0.14-0.14,7.15-27.21,7.15-27.35c0,0-0.42-0.56-0.98-1.26L64,230.9h3.09
		c1.68,0,4.49,0,6.17,0h3.09l-1.54,1.12c-0.84,0.56-1.54,1.12-1.54,1.12c-0.14,0.14-7.15,27.21-7.15,27.35c0,0,0.7,0.56,1.4,1.12
		c0.7,0.56,1.4,0.98,1.4,1.12l0.14,0.14h-6.73C59.09,262.87,56.01,262.87,56.01,262.87L56.01,262.87z M101.3,262.73
		c0,0,0.7-0.56,1.54-1.12l1.4-1.12l3.51-13.6c1.96-7.57,3.51-13.74,3.51-13.74s-0.7-0.56-1.54-1.12l-1.4-1.12h10.38
		c5.75,0,10.38,0,10.38,0s-1.4,7.29-1.4,7.43c0,0-0.14-0.14-1.54-2.8l-1.26-2.38h-2.94h-2.94l-1.4,5.33
		c-0.7,2.94-1.54,5.75-1.68,6.17l-0.28,0.84h2.8h2.8l1.68-1.4c0.98-0.84,1.68-1.4,1.68-1.4c0,0.14-2.24,8.69-2.24,8.69
		s-0.42-0.84-0.84-1.82l-0.84-1.82h-2.8h-2.8l-1.68,6.31c-0.84,3.51-1.68,6.31-1.68,6.45v0.14h4.63h4.63l2.8-2.1
		c1.54-1.12,2.8-2.1,2.8-2.1s-0.42,1.54-0.98,3.23l-0.98,3.23h-11.5C106.35,262.87,101.16,262.87,101.3,262.73L101.3,262.73z
		 M132.86,262.73c0.14-0.14,1.68-1.26,2.8-2.1l7.15-27.49c0,0-0.7-0.56-1.54-1.12l-1.4-1.12h10.8c5.89,0,10.8,0,10.8,0
		s-1.4,7.29-1.4,7.43c0,0-0.14-0.28-1.54-2.66l-1.4-2.52h-3.51h-3.51l-0.14,0.28c0,0.14-0.7,2.8-1.54,6.03s-1.54,5.89-1.54,5.89
		v0.14h2.8h2.8l1.68-1.4c0.84-0.84,1.68-1.4,1.68-1.4s-2.24,8.55-2.24,8.69c0,0-0.42-0.7-0.84-1.82l-0.84-1.82h-2.8h-2.8l-0.14,0.28
		c0,0.14-0.84,2.94-1.68,6.31c-0.84,3.37-1.54,6.03-1.54,6.17v0.14H148h5.05l2.8-2.1c1.54-1.12,2.8-2.1,2.8-2.1
		s-0.42,1.54-0.98,3.23l-0.98,3.23h-12.06L132.86,262.73L132.86,262.73L132.86,262.73z M200.17,261.75
		c0.84-0.56,1.54-1.12,1.54-1.12s7.15-27.21,7.15-27.35c0,0-0.56-0.56-1.4-1.12s-1.4-1.12-1.54-1.12l-0.14-0.14h8.27h8.27l0.98,0.14
		c4.21,0.56,6.73,1.68,7.99,3.51c0.84,1.26,0.98,2.66,0.42,4.35c-0.42,1.4-1.68,2.8-3.79,4.21c-1.68,1.12-4.07,2.1-6.03,2.38
		c-0.56,0.14-0.7,0.14-0.14,0.28c0.14,0,0.7,0.14,1.12,0.14c3.51,0.7,6.31,2.52,7.29,4.77c0.42,0.98,0.42,1.82,0.28,2.8
		c-0.42,2.24-1.68,4.35-3.37,5.75c-2.24,1.82-5.19,2.94-9.68,3.51l-0.98,0.14h-8.97h-8.97L200.17,261.75L200.17,261.75z
		 M214.19,260.49c2.52-0.28,4.49-1.12,6.17-2.66c1.4-1.4,2.38-3.23,2.8-5.19c0.56-3.51-2.1-5.61-8.13-6.31
		c-0.28,0-0.42-0.14-0.42-0.14s0.28-0.14,0.56-0.28c1.26-0.42,3.37-1.54,4.77-2.38c2.66-1.82,4.21-3.51,4.63-5.33
		c0.7-2.8-0.56-4.49-3.51-4.91l-0.7-0.14h-1.96h-1.96l-0.14,0.28c-2.38,8.83-7.01,26.92-7.01,26.92v0.14h2.1
		C212.51,260.63,213.77,260.49,214.19,260.49L214.19,260.49z M230.6,261.75c0.84-0.56,1.54-1.12,1.54-1.26
		c0.14-0.28,7.15-27.35,7.15-27.35s-0.7-0.56-1.4-1.12c-0.7-0.56-1.4-1.12-1.4-1.12l-0.14-0.14h7.01h7.01l-0.14,0.14
		c0,0-0.84,0.56-1.82,1.12l-1.68,1.12l-3.51,13.6c-1.96,7.43-3.51,13.6-3.51,13.74v0.14h4.21h4.21l2.66-2.1
		c1.4-1.12,2.66-2.1,2.66-2.1s-0.42,1.54-0.98,3.23l-1.12,3.23h-10.94h-10.94L230.6,261.75L230.6,261.75z M252.47,262.87
		c0,0,0.7-0.56,1.4-1.12l1.4-1.12l0.14-0.42c0.42-1.54,7.01-27.07,7.01-27.07s-0.7-0.56-1.4-1.12c-0.7-0.56-1.4-1.12-1.4-1.12
		s4.35,0,10.38,0c5.75,0,10.38,0,10.38,0c0,0.14-1.4,7.43-1.4,7.43s-0.7-1.12-1.4-2.52l-1.4-2.52h-3.09c-1.68,0-3.09,0-3.09,0
		s-3.09,12.06-3.23,12.2v0.14h2.8h2.8l1.68-1.4c0.98-0.84,1.68-1.4,1.68-1.4c0,0.14-2.24,8.55-2.24,8.69c0,0-0.42-0.7-0.84-1.82
		l-0.84-1.82h-2.8c-1.54,0-2.8,0-2.8,0s-0.7,2.8-1.54,6.17c-0.84,3.37-1.68,6.31-1.68,6.31v0.14h4.63h4.63l2.8-2.1
		c1.54-1.12,2.8-2.1,2.8-2.1s-0.42,1.54-0.98,3.23l-0.98,3.23h-11.5C257.66,262.87,252.47,262.87,252.47,262.87L252.47,262.87z"/>
</g>
</svg>
