<?xml version="1.0" encoding="UTF-8"?>
<svg xmlns="http://www.w3.org/2000/svg" xmlns:xlink="http://www.w3.org/1999/xlink" version="1.1" width="2269px" height="2269px" style="shape-rendering:geometricPrecision; text-rendering:geometricPrecision; image-rendering:optimizeQuality; fill-rule:evenodd; clip-rule:evenodd">
  <g>
    <path style="opacity:0.999" fill="#000000" d="M -0.5,-0.5 C 3.16667,-0.5 6.83333,-0.5 10.5,-0.5C 127.982,12.4996 242.315,39.3329 353.5,80C 382.934,91.4783 411.768,104.312 440,118.5C 440.167,103.822 440.667,89.1553 441.5,74.5C 531.755,94.8083 615.088,130.642 691.5,182C 708.911,194.74 725.744,208.24 742,222.5C 748.64,199.605 754.807,176.605 760.5,153.5C 856.468,186.038 938.301,239.704 1006,314.5C 1012.71,322.212 1019.05,330.212 1025,338.5C 1030.89,313.211 1036.73,287.878 1042.5,262.5C 1137.58,298.779 1217.75,355.779 1283,433.5C 1296.57,450.971 1308.91,469.304 1320,488.5C 1328.47,459.58 1336.64,430.58 1344.5,401.5C 1407.62,433.058 1465.29,472.558 1517.5,520C 1541.95,543.44 1563.79,568.94 1583,596.5C 1597.79,619.412 1608.79,644.079 1616,670.5C 1632.64,646.362 1649.47,622.362 1666.5,598.5C 1722.06,644.197 1767.89,697.864 1804,759.5C 1829.41,802.743 1843.75,849.41 1847,899.5C 1866.58,869.328 1886.42,839.328 1906.5,809.5C 1907.5,808.167 1908.5,808.167 1909.5,809.5C 1974.2,884.785 2008.2,972.285 2011.5,1072C 2011.17,1088.22 2010.34,1104.39 2009,1120.5C 2033,1096.5 2057,1072.5 2081,1048.5C 2110.27,1095.41 2128.6,1146.41 2136,1201.5C 2143.49,1259.05 2140.82,1316.05 2128,1372.5C 2150.51,1355.58 2173.17,1338.92 2196,1322.5C 2199.95,1329.33 2202.95,1336.67 2205,1344.5C 2233.31,1445.73 2224.48,1543.56 2178.5,1638C 2208.69,1626.54 2238.69,1614.38 2268.5,1601.5C 2268.5,1603.5 2268.5,1605.5 2268.5,1607.5C 2215.2,1808.03 2107.87,1972.86 1946.5,2102C 1845.12,2180.36 1732.12,2235.86 1607.5,2268.5C 1605.5,2268.5 1603.5,2268.5 1601.5,2268.5C 1614.38,2238.69 1626.54,2208.69 1638,2178.5C 1535.42,2228.04 1430.25,2234.37 1322.5,2197.5C 1322.61,2195.22 1323.44,2193.22 1325,2191.5C 1340.83,2170.33 1356.67,2149.17 1372.5,2128C 1295.13,2146.04 1218.13,2144.37 1141.5,2123C 1108.34,2113.58 1077.34,2099.58 1048.5,2081C 1072.5,2057 1096.5,2033 1120.5,2009C 1036.41,2018.23 957.411,2002.23 883.5,1961C 856.262,1946.42 831.262,1928.75 808.5,1908C 838.287,1886.93 868.62,1866.6 899.5,1847C 849.405,1843.75 802.739,1829.41 759.5,1804C 697.864,1767.89 644.197,1722.06 598.5,1666.5C 622.362,1649.47 646.362,1632.64 670.5,1616C 644.079,1608.79 619.412,1597.79 596.5,1583C 552.16,1552 513.66,1514.83 481,1471.5C 450.457,1431.76 423.957,1389.43 401.5,1344.5C 430.844,1336.44 460.177,1328.28 489.5,1320C 439.731,1291.59 396.564,1255.09 360,1210.5C 318.568,1160.01 286.068,1104.01 262.5,1042.5C 287.878,1036.73 313.211,1030.89 338.5,1025C 287.849,985.689 245.683,938.856 212,884.5C 187.392,845.616 167.892,804.282 153.5,760.5C 176.605,754.807 199.605,748.64 222.5,742C 175.958,689.024 139.458,629.524 113,563.5C 96.85,523.883 84.0167,483.216 74.5,441.5C 89.1553,440.667 103.822,440.167 118.5,440C 78.8818,359.483 49.3818,275.317 30,187.5C 16.5705,128.918 6.40385,69.9184 -0.5,10.5C -0.5,6.83333 -0.5,3.16667 -0.5,-0.5 Z"></path>
  </g>
</svg>
