<?xml version="1.0" encoding="utf-8"?>
<!-- Generator: Adobe Illustrator 27.0.0, SVG Export Plug-In . SVG Version: 6.00 Build 0)  -->
<svg version="1.1" id="Layer_1" xmlns="http://www.w3.org/2000/svg" xmlns:xlink="http://www.w3.org/1999/xlink" x="0px" y="0px"
	 viewBox="0 0 512 512" style="enable-background:new 0 0 512 512;" xml:space="preserve">
<g id="XMLID_1_">
	<path id="XMLID_3_" d="M160.47,178.71v111.94c0,6.73,5.47,12.2,12.2,12.2h74.91L160.47,178.71L160.47,178.71z"/>
	<path id="XMLID_4_" d="M287.56,302.85h26.79c6.73,0,12.2-5.47,12.2-12.2V247.3L287.56,302.85z"/>
	<path id="XMLID_5_" d="M180.25,136.77h134.1c6.73,0,12.2,5.47,12.2,12.2v29.04l-58.92,85.71L180.25,136.77L180.25,136.77z"/>
	<path id="XMLID_6_" d="M101.84,335.96h54.43v-9.12h-54.43c-5.19,0-9.68,2.81-12.62,8c-2.38,4.21-3.65,9.82-3.65,16.13
		c0,6.31,1.26,11.78,3.65,16.13c2.95,5.19,7.43,8,12.62,8h54.43v-9.12h-54.43c-3.23,0-5.89-4.21-6.87-10.38h58.77v-9.12H94.97
		C95.95,340.16,98.47,335.96,101.84,335.96"/>
	<path id="XMLID_7_" d="M272.97,335.96h54.57v-9.12h-54.57c-5.19,0-9.68,2.81-12.48,8c-2.38,4.21-3.65,9.82-3.65,16.13
		c0,6.31,1.26,11.78,3.65,16.13c2.95,5.19,7.43,8,12.48,8h54.57v-9.12h-54.57c-3.23,0-5.89-4.21-6.73-10.38h58.77v-9.12h-58.77
		C267.08,340.16,269.75,335.96,272.97,335.96"/>
	<path id="XMLID_8_" d="M441.02,326.84v28.62h58.92c2.67,0,3.09,3.37,3.09,5.33c0,0.84-0.14,5.19-3.09,5.19h-58.49v9.12h58.49
		c7.15,0,12.06-5.89,12.06-14.31c0-8.7-4.77-14.45-12.06-14.45h-49.8v-10.52h59.06v-9.12h-68.17V326.84z"/>
	<path id="XMLID_9_" d="M62.84,355.31c-1.96,10.8-5.61,10.8-8.56,10.8H9.12v-39.98H0v49.1h54.29c10.52,0,15.71-6.45,17.81-19.92
		H62.84L62.84,355.31z"/>
	<path id="XMLID_10_" d="M409.88,355.31c-1.96,10.8-5.61,10.8-8.42,10.8H356.3v-39.98h-9.12v49.1h54.43
		c10.52,0,15.71-6.45,17.81-19.92H409.88L409.88,355.31z"/>
	<polygon id="XMLID_11_" points="204.66,375.23 212.8,375.23 247.3,326 236.08,326 208.73,365.83 181.37,326 170.15,326 	"/>
</g>
</svg>
