<?xml version="1.0" encoding="utf-8"?>
<!-- Generator: Adobe Illustrator 26.5.0, SVG Export Plug-In . SVG Version: 6.00 Build 0)  -->
<svg version="1.1" id="Layer_1" xmlns="http://www.w3.org/2000/svg" xmlns:xlink="http://www.w3.org/1999/xlink" x="0px" y="0px"
	 viewBox="0 0 512 512" style="enable-background:new 0 0 512 512;" xml:space="preserve">
<g id="XMLID_1_">
	<polygon id="XMLID_3_" points="256.68,325.26 237.05,285.99 256.68,240.69 276.31,285.99 	"/>
	<polygon id="XMLID_4_" points="256.68,325.26 257.52,324.98 238.03,285.99 256.68,242.8 275.47,285.99 255.98,324.98 
		256.68,325.26 257.52,324.98 256.68,325.26 257.52,325.68 277.3,285.99 256.68,238.45 236.07,285.99 256.68,327.22 257.52,325.68 	
		"/>
	<path id="XMLID_5_" d="M320.07,442.07h64.65c-12.2-5.47-19.77-16.41-19.77-16.41L257.1,71.71L149.4,426.09
		c0,0-7.43,10.94-19.77,16.41h64.65c0,0-14.3-7.71-20.19-14.72l83.02-293.09l83.02,292.67
		C334.37,434.36,320.07,442.07,320.07,442.07z"/>
	<path id="XMLID_6_" d="M320.07,442.07v0.84h64.65l0.42-1.68c-6.03-2.66-10.8-6.73-14.16-10.1c-1.68-1.68-2.94-3.23-3.79-4.21
		c-0.42-0.56-0.84-0.98-0.98-1.26l-0.28-0.28l-0.14-0.14l-0.7,0.56l0.84-0.28L257.24,68.77L148.56,425.81l0.84,0.28l-0.7-0.56
		l-0.14,0.14c-0.84,1.12-8.13,10.94-19.35,15.99l0.42,1.68h64.65l0.42-1.68c0,0-0.28-0.14-0.56-0.28c-1.4-0.84-5.05-2.8-8.83-5.47
		c-3.93-2.66-7.99-5.75-10.52-8.83l-0.7,0.56l0.84,0.28L257.1,137.9l82.18,289.59l0.84-0.28l-0.7-0.56
		c-2.8,3.37-7.85,7.01-12.06,9.82c-2.1,1.4-4.07,2.52-5.47,3.37c-0.7,0.42-1.26,0.7-1.68,0.98c-0.42,0.28-0.56,0.28-0.56,0.28
		l0.42,1.68L320.07,442.07l0.42,0.84c0,0,3.65-1.96,7.99-4.77c4.35-2.8,9.4-6.59,12.48-10.24l0.28-0.42l-84-296.04l-84,296.46
		l0.28,0.42c3.09,3.65,8.13,7.43,12.48,10.24c4.35,2.8,7.99,4.77,7.99,4.77l0.42-0.84v-0.84h-64.65v0.84l0.42,0.84
		c12.48-5.61,20.05-16.55,20.05-16.69l0.14-0.14l107-351.71l107,351.29l0.14,0.14c0,0,7.57,11.08,20.05,16.69l0.42-0.84v-0.98
		h-64.65v0.98l0.42,0.84L320.07,442.07z"/>
	<path id="XMLID_7_" d="M255.98,121.63c-140.8,0-255.09,44.45-255.09,99.43c0,48.1,87.65,88.21,204.18,97.46l10.8-38.28
		C97.51,274.63,0.19,244.9,10.43,207.88c11.36-40.67,109.94-81.34,245.55-81.34s237.98,43.47,245.55,81.34
		c7.43,37.44-86.24,66.61-203.06,72.36l10.8,38.14c115.27-9.54,201.66-49.5,201.66-97.18C511.07,166.09,396.78,121.63,255.98,121.63
		z"/>
	<path id="XMLID_8_" d="M255.98,121.63v-0.84c-70.54,0-134.35,11.08-180.62,29.17c-23.14,8.98-41.93,19.77-54.97,31.83
		C7.34,193.86,0.05,207.04,0.05,221.2c0,12.34,5.61,24.12,15.71,34.78c15.29,16.13,40.67,30.29,73.2,41.23s72.22,18.79,115.97,22.3
		h0.7l11.36-39.97h-1.12c-56.23-2.66-107.7-10.8-145.14-22.58c-18.65-5.89-33.8-12.62-44.17-20.05c-5.19-3.65-9.26-7.57-11.92-11.5
		c-2.66-3.93-4.07-7.99-4.07-12.06c0-1.68,0.28-3.37,0.7-5.19c2.8-9.96,10.94-19.91,23.7-29.45
		c38.56-28.47,119.34-51.33,220.87-51.19c67.73,0,127.05,10.8,170.53,26.36c21.74,7.71,39.41,16.69,52.03,26.08
		c12.62,9.26,20.33,19.07,22.16,28.05c0.28,1.4,0.42,2.66,0.42,3.93c0,4.21-1.4,8.41-3.93,12.34c-4.63,7.01-13.18,13.74-24.96,19.91
		c-35.48,18.37-99.99,31.41-173.61,34.92h-1.12l11.36,39.97h0.7c57.78-4.77,108.26-17.11,144.44-34.36
		c18.09-8.55,32.53-18.37,42.63-29.17c9.96-10.66,15.57-22.44,15.57-34.64c0-14.02-7.29-27.35-20.33-39.41
		c-19.49-17.95-52.03-33.24-92.84-43.89c-40.81-10.8-89.89-16.97-142.76-16.97v0.98v0.84c70.4,0,134.07,11.08,180.06,29.03
		c23,8.98,41.65,19.63,54.41,31.41c12.76,11.78,19.77,24.68,19.77,38c0,11.64-5.33,22.86-15.01,33.38
		c-14.72,15.71-39.55,29.73-71.52,40.67s-71.1,18.79-114.29,22.3l0.14,0.84l0.84-0.28l-10.8-38.14l-0.84,0.28v0.84
		c56.23-2.8,107.14-10.94,144.16-22.86c18.51-6.03,33.38-12.9,43.89-20.61c5.19-3.79,9.26-7.85,12.06-12.2
		c2.8-4.21,4.21-8.69,4.21-13.32c0-1.4-0.14-2.8-0.42-4.35c-1.96-9.82-9.96-19.77-22.86-29.17c-19.35-14.16-49.78-27.35-88.07-37.02
		s-84.56-15.85-135.47-15.85c-67.87,0-126.49,10.1-169.69,25.38c-21.6,7.57-39.27,16.55-52.31,26.22
		c-13.04,9.54-21.46,19.91-24.4,30.29c-0.56,1.82-0.84,3.79-0.84,5.61c0,4.49,1.54,8.83,4.35,13.04
		c5.05,7.29,14.02,14.02,26.22,20.19c36.6,18.37,102.37,31.27,176.42,34.64v-0.84l-0.84-0.28l-10.8,38.28l0.84,0.28v-0.84
		c-58.2-4.63-109.1-16.97-145.42-34.08c-18.23-8.55-32.67-18.37-42.63-28.89c-9.96-10.52-15.29-21.88-15.29-33.66
		c0-13.46,7.01-26.22,19.77-38c19.21-17.67,51.47-32.82,91.99-43.47c40.67-10.66,89.61-16.97,142.34-16.97v-0.7H255.98z"/>
</g>
</svg>
