<?xml version="1.0" encoding="utf-8"?>
<!-- Generator: Adobe Illustrator 27.0.0, SVG Export Plug-In . SVG Version: 6.00 Build 0)  -->
<svg version="1.1" id="Layer_1" xmlns="http://www.w3.org/2000/svg" xmlns:xlink="http://www.w3.org/1999/xlink" x="0px" y="0px"
	 viewBox="0 0 512 512" style="enable-background:new 0 0 512 512;" xml:space="preserve">
<style type="text/css">
	.st0{fill:#F79A10;}
	.st1{fill:#666666;}
</style>
<g id="XMLID_1_">
	<path id="XMLID_3_" class="st0" d="M464.45,179.41c-4.35-1.82-8.42-1.96-13.33-1.96l-83.32,0.42
		c-17.25-0.84-34.09,3.37-48.82,11.78l0,0c-2.67,1.4-4.35,4.21-4.35,7.43c0,4.63,3.79,8.42,8.42,8.42c2.38,0,4.63-0.98,6.17-2.67
		c18.38-9.82,40.68-11.64,61.3-3.23c36.75,15.01,54.29,57.23,39.28,93.98c-4.07,9.82-10.1,18.24-17.39,25.11v0.14
		c-2.52,1.4-4.21,4.21-4.21,7.29c0,4.63,3.79,8.42,8.42,8.42c2.95,0,5.61-1.54,7.15-3.93c8.98-8.42,16.27-18.8,21.18-30.72
		c0.28-0.84,34.51-83.88,34.51-84.16C485.35,201.43,478.61,185.3,464.45,179.41z"/>
	<path id="XMLID_4_" class="st1" d="M18.24,277.46c0.14,8.42,7.15,11.78,14.73,11.78c5.47,0,12.48-2.1,12.48-8.84
		c0-5.75-8-7.86-21.74-10.8c-11.08-2.38-22.16-6.31-22.16-18.66c0-17.81,15.43-22.3,30.3-22.3c15.29,0,29.18,5.05,30.72,22.16H44.33
		c-0.56-7.43-6.17-9.4-13.05-9.4c-4.35,0-10.66,0.84-10.66,6.45c0,6.87,10.8,7.86,21.74,10.38c11.22,2.52,22.16,6.59,22.16,19.5
		c0,18.38-15.85,24.27-31.84,24.27c-16.13,0-31.98-6.03-32.68-24.55H18.24L18.24,277.46z"/>
	<path id="XMLID_7_" class="st1" d="M104.22,228.51c22.02,0,36.05,14.59,36.05,36.75c0,22.16-14.17,36.61-36.05,36.61
		s-35.91-14.59-35.91-36.61C68.17,243.09,82.34,228.51,104.22,228.51z M104.22,287.56c13.05,0,16.97-11.22,16.97-22.3
		c0-11.22-3.93-22.3-16.97-22.3c-12.91,0-16.83,11.22-16.83,22.3C87.25,276.34,91.18,287.56,104.22,287.56z"/>
	<path id="XMLID_8_" class="st1" d="M210.27,300.05h-18.24v-9.68h-0.42c-4.91,7.86-13.19,11.64-21.32,11.64
		c-20.34,0-25.53-11.5-25.53-28.76v-42.78h19.08v39.28c0,11.5,3.37,17.11,12.2,17.11c10.38,0,14.87-5.75,14.87-19.92v-36.47h19.08
		v69.58H210.27z"/>
	<path id="XMLID_9_" class="st1" d="M216.02,230.33h18.24v12.91h0.28c3.51-8.7,12.91-14.87,22.3-14.87c1.4,0,2.95,0.28,4.21,0.7
		v17.81c-1.82-0.42-4.63-0.7-6.87-0.7c-14.03,0-18.8,10.1-18.8,22.3v31.42H216.3v-69.58H216.02z"/>
	<path id="XMLID_10_" class="st1" d="M308.04,254.88c-1.26-7.86-6.17-11.92-14.17-11.92c-12.2,0-16.27,12.34-16.27,22.58
		c0,9.96,3.93,22.02,15.85,22.02c8.84,0,14.03-5.61,15.29-14.17h18.52c-2.38,18.52-15.29,28.62-33.53,28.62
		c-21.04,0-35.21-14.87-35.21-35.77c0-21.74,12.91-37.73,35.63-37.73c16.41,0,31.56,8.56,32.68,26.37H308.04z"/>
	<path id="XMLID_13_" class="st1" d="M348.3,269.89c0.56,12.06,6.45,17.67,17.11,17.67c7.72,0,13.89-4.77,15.15-8.98h16.83
		c-5.33,16.41-16.83,23.43-32.54,23.43c-22.02,0-35.63-15.15-35.63-36.61c0-20.9,14.45-36.75,35.63-36.75
		c23.71,0,35.21,19.92,33.81,41.38L348.3,269.89L348.3,269.89z M379.44,257.68c-1.82-9.68-5.89-14.87-15.29-14.87
		c-12.06,0-15.57,9.4-15.85,14.87H379.44z"/>
	<polygon id="XMLID_14_" points="498.11,196.38 498.11,205.5 496.43,205.5 496.43,196.38 493.62,196.38 493.62,194.98 
		500.92,194.98 500.92,196.38 	"/>
	<polygon id="XMLID_15_" points="510.46,205.5 510.46,198.49 507.93,203.54 506.81,203.54 504.28,198.49 504.28,205.5 502.74,205.5 
		502.74,194.98 504.28,194.98 507.37,201.57 510.46,194.98 512,194.98 512,205.5 	"/>
</g>
</svg>
