<?xml version="1.0" encoding="UTF-8"?>
<svg xmlns="http://www.w3.org/2000/svg" width="1000" height="1000" viewBox="0 0 1000 1000" version="1.1">
  <path d="M 448.500 202.676 C 440.746 203.945, 425.864 208.025, 420 210.491 C 403.161 217.570, 391.994 226.643, 376 246.239 L 370.500 252.978 365.500 252.398 C 362.750 252.079, 355.100 250.865, 348.500 249.700 C 330.659 246.550, 301.595 246.601, 287 249.806 C 258.620 256.039, 242.052 266.714, 226.731 288.641 C 203.320 322.145, 203.533 371.983, 227.191 396.621 C 243.390 413.490, 267.733 415.249, 286.719 400.921 C 301.162 390.021, 307.358 368.974, 301.593 350.396 C 298.099 339.135, 285.445 330, 273.340 330 C 268.333 330, 266.579 329.579, 265 328 C 260.289 323.289, 263.829 318.564, 272.853 317.517 C 287.392 315.830, 303.477 321.960, 313.362 332.957 C 315.486 335.320, 318.622 340.234, 320.330 343.877 C 322.968 349.500, 323.495 351.935, 323.818 360 C 324.273 371.352, 322.497 379.319, 317.303 389.228 C 309.909 403.332, 294.195 416.497, 278.500 421.738 C 271.515 424.070, 268.851 424.415, 257.500 424.454 C 243.046 424.505, 234.199 422.499, 224.500 416.973 C 212.892 410.360, 203.595 397.272, 198.665 380.606 C 196.027 371.685, 195.295 367.047, 192.574 342 C 191.767 334.575, 190.829 325.939, 190.489 322.809 L 189.871 317.118 185.185 315.590 C 165.544 309.186, 143.100 307.675, 128.709 311.789 C 111.247 316.781, 96.905 326.824, 83.637 343.352 C 79.240 348.828, 71.603 359.934, 69.693 363.626 C 68.507 365.919, 66.661 367.099, 61.336 368.965 C 28.199 380.577, 6.190 401.825, 1.407 426.822 C -2.475 447.111, 1.985 469.131, 15.438 496.087 L 21.719 508.674 17.846 519.587 C 11.668 536.994, 10.524 542.917, 10.527 557.500 C 10.531 576.678, 14.039 587.455, 25.520 603.570 C 36.851 619.474, 60.657 635.402, 84.887 643.289 C 94.055 646.274, 95.264 646.420, 111 646.443 C 127.065 646.467, 127.731 646.384, 136.245 643.291 C 160.997 634.300, 173.469 622.934, 180.285 603.161 C 183.045 595.154, 183.168 594.080, 182.754 581.617 C 182.012 559.308, 176.440 547.192, 164.276 541.438 C 159.491 539.174, 157.226 538.748, 149.772 538.713 C 141.104 538.673, 140.830 538.746, 135.255 542.586 C 128.711 547.093, 123.770 553.202, 117.600 564.414 C 113.461 571.935, 113.185 572.215, 112.029 570.055 C 111.360 568.805, 110.224 564.119, 109.504 559.641 C 108.456 553.117, 108.438 550.010, 109.412 544 C 111.226 532.822, 113.578 529.016, 120.653 525.816 C 137.265 518.303, 144.856 516.029, 153.384 516.012 C 161.140 515.996, 166.469 517.615, 172.205 521.729 C 183.228 529.636, 186.206 535.905, 196.563 573 C 201.558 590.888, 205.058 600.332, 211.408 613.056 C 224.734 639.759, 245.853 665.360, 271 685.295 C 275.675 689.001, 281.075 693.299, 283 694.846 C 284.925 696.393, 291.900 701.256, 298.500 705.653 C 347.294 738.156, 404.784 762.887, 466.500 777.924 C 529.768 793.339, 604.803 800.761, 659 796.965 C 681.400 795.395, 711.393 792.165, 723 790.072 C 728.775 789.030, 735.525 787.897, 738 787.554 C 743.601 786.778, 760.148 783.034, 778.500 778.389 C 822.071 767.362, 854.086 754.630, 885 736.035 C 939.568 703.211, 973.741 660.117, 988.910 605 C 992.785 590.921, 997.112 565.522, 998.536 548.500 C 1002.682 498.943, 997.504 451.110, 982.480 400.183 C 979.757 390.950, 969.778 374.725, 969.207 378.601 C 969.046 379.695, 969.859 388.445, 971.013 398.045 C 975.845 438.250, 976.340 444.733, 976.359 468 C 976.382 495.135, 974.707 512.430, 970.016 533.500 C 956.939 592.231, 932.297 634.757, 892 668.136 C 865.842 689.802, 830.002 705.352, 783 715.426 C 755.313 721.361, 712.925 723.165, 683.276 719.672 C 650.469 715.807, 615.595 706.094, 583.420 691.862 C 564.046 683.292, 539.534 663.663, 530.518 649.500 C 521.035 634.604, 517.584 622.147, 517.634 603 C 517.703 576.790, 524.464 564.697, 542.428 558.657 C 548.950 556.464, 549.923 556.539, 555.513 559.663 L 560.277 562.326 554.889 566.898 C 544.176 575.987, 536.796 583.553, 535.412 586.865 C 533.608 591.183, 533.616 597.429, 535.435 604.413 C 538.737 617.089, 548.454 627.562, 560.235 631.140 C 566.490 633.040, 568.032 633.161, 573.348 632.172 C 590.533 628.977, 604.766 616.037, 615.888 593.500 C 622.578 579.944, 625.507 566.478, 624.684 553.062 C 622.836 522.944, 609.088 499.742, 585.557 487.027 C 571.050 479.188, 547.631 474.014, 536.279 476.139 C 526.232 478.020, 507.069 476.642, 495.377 473.197 C 489.809 471.556, 483.734 469.540, 481.877 468.715 C 480.020 467.891, 475.404 465.814, 471.620 464.100 C 458.304 458.068, 445.777 456.242, 432.928 458.459 C 421.789 460.381, 414.076 463.664, 405.127 470.291 C 391.027 480.732, 380.328 484.244, 355.500 486.581 C 333.584 488.644, 323.965 492.002, 310.500 502.291 C 297.159 512.485, 285.350 529.699, 279.511 547.460 C 274.629 562.315, 273.504 585.572, 276.889 601.691 C 280.457 618.677, 289.015 630.239, 302.945 636.892 C 309.891 640.209, 311.226 640.500, 319.500 640.500 C 327.646 640.500, 329.188 640.177, 335.753 637.101 C 344.243 633.122, 350.299 627.180, 354.388 618.820 C 356.884 613.717, 357.167 612.081, 357.167 602.737 C 357.167 591.798, 356.211 588.350, 349.364 574.589 C 347.800 571.445, 347.267 569.333, 347.883 568.717 C 348.425 568.175, 352.922 567.937, 358.173 568.172 C 366.145 568.529, 368.560 569.080, 374.801 571.966 C 382.528 575.540, 390.958 583.387, 395.066 590.828 C 396.181 592.848, 398.692 597.200, 400.647 600.500 C 402.602 603.800, 405.795 609.425, 407.744 613 C 419.986 635.456, 422.804 640.355, 427.868 647.994 C 456.253 690.804, 499.076 719.933, 554 733.791 C 582.866 741.074, 616.521 744.979, 650.500 744.989 C 669.999 744.994, 704.826 742.765, 728.753 739.980 C 738.514 738.844, 751 737.509, 756.500 737.014 C 762 736.518, 775.500 735.001, 786.500 733.643 C 797.500 732.284, 810.059 730.883, 814.409 730.530 L 822.318 729.888 820.805 732.194 C 817.927 736.578, 811.636 740.014, 801.977 742.476 C 746.847 756.528, 719.979 760.903, 674.859 763.178 C 647.967 764.534, 619.796 763.368, 585 759.458 C 555.580 756.152, 544.659 753.761, 516 744.351 C 476.832 731.490, 452.986 713.896, 429.613 680.612 C 425.619 674.925, 414.091 658.091, 403.171 642 C 391.460 624.745, 379.580 610.562, 378.266 612.268 C 377.744 612.946, 374.904 617.550, 371.954 622.500 C 359.003 644.233, 337.941 656.981, 315 656.973 C 289.128 656.964, 273.107 645.867, 265.225 622.495 C 259.094 604.318, 257.367 568.512, 261.514 545.577 C 265.873 521.474, 281.069 498.279, 300.874 485.501 C 318.833 473.913, 336.971 469, 361.791 469 L 376.686 469 384.025 463.846 C 394.286 456.640, 404.143 451.204, 413.500 447.590 L 421.500 444.500 446 444.535 L 470.500 444.570 480 447.672 C 485.225 449.378, 492.200 452.136, 495.500 453.801 C 498.800 455.467, 504.791 457.820, 508.813 459.031 C 515.086 460.920, 517.503 461.142, 525.813 460.592 C 552.336 458.835, 556.513 458.814, 564.811 460.396 C 578.658 463.037, 591.802 469.658, 603 479.635 C 621.945 496.514, 632.493 512.832, 638.740 534.923 C 641.147 543.436, 641.450 546.222, 641.474 560 C 641.534 595.693, 631.036 618.749, 607.488 634.644 C 600.268 639.518, 592.344 643.584, 585.226 646.068 C 582.325 647.081, 577.001 649.842, 573.395 652.204 L 566.838 656.500 571.721 661 C 585.287 673.503, 602.852 682.505, 626 688.816 C 673.082 701.654, 731.954 703.835, 777 694.412 C 828.368 683.667, 869.345 664.726, 895.794 639.501 C 924.930 611.715, 940.427 580.989, 949.006 534 C 956.877 490.887, 957.006 449.819, 949.487 380.500 C 939.198 285.644, 932.893 232.905, 931.156 227.178 L 930.452 224.856 927.720 227.006 C 926.217 228.188, 924.544 229.984, 924.002 230.997 C 922.786 233.268, 920.465 272.655, 918.991 316 C 917.468 360.815, 914.134 442.102, 912.512 474 C 911.007 503.594, 909.145 515.665, 902.945 536 C 897.880 552.616, 894.804 560.604, 889.083 572 C 882.234 585.644, 876.031 594.126, 864.574 605.512 C 846.201 623.771, 824.654 635.543, 796.500 642.703 C 785.994 645.374, 784.445 645.500, 762 645.500 C 739.072 645.500, 738.244 645.429, 728 642.571 C 691.098 632.278, 668.836 612.589, 658.382 581 C 655.750 573.047, 655.567 571.407, 655.535 555.500 L 655.500 538.500 659.750 524.245 C 662.087 516.404, 664 509.814, 664 509.601 C 664 509.233, 670.690 507.994, 691.500 504.505 C 703.281 502.530, 712.242 502.568, 716.300 504.612 C 724.249 508.616, 730 518.097, 730 527.200 C 730 531.729, 726.348 538.376, 721.094 543.410 L 718.106 546.272 717.618 543.886 C 717.349 542.574, 716.884 539.365, 716.585 536.756 C 715.819 530.090, 711.702 522.414, 707.813 520.403 C 705.404 519.157, 702.863 518.874, 697.300 519.231 C 683.842 520.095, 674.177 527.309, 670.419 539.294 C 667.775 547.730, 667.480 564.086, 669.816 572.749 C 676.251 596.612, 701.264 617.851, 733.513 626.838 C 771.270 637.359, 812.351 626.423, 840.387 598.387 C 866.898 571.876, 883.083 523.430, 879.146 482.371 C 876.604 455.860, 870.683 433.977, 860.513 413.500 C 852.601 397.571, 846.775 389.602, 833.078 375.978 C 815.711 358.703, 797.740 348.158, 771 339.554 C 750.450 332.942, 733.218 330.379, 720.302 332.012 C 700.347 334.536, 688.127 341.155, 668.159 360.254 C 652.610 375.126, 651.006 376.418, 641.257 381.931 C 632.745 386.744, 620.486 389.983, 610.739 389.993 C 602.586 390.001, 588.435 386.984, 579.585 383.349 C 561.758 376.028, 551 359.848, 551 340.359 C 551 321.753, 560.092 309.878, 575.560 308.282 C 581.252 307.694, 588.696 309.724, 590.991 312.489 C 592.797 314.665, 590.485 317.863, 585.587 319.963 C 583.237 320.970, 578.656 324.269, 575.407 327.293 L 569.500 332.792 569.554 339.699 C 569.601 345.734, 570.066 347.420, 573.235 353.053 C 583.243 370.839, 600.956 379.205, 618.879 374.611 C 633.712 370.808, 644.425 364.704, 655 354.030 C 672.653 336.211, 681.822 314.094, 679.046 296.030 C 676.206 277.550, 662.120 258.462, 645.381 250.411 C 634.601 245.225, 628.353 244.633, 598.034 245.920 C 583.990 246.517, 565.832 247.004, 557.683 247.002 C 543.166 247, 542.796 246.946, 539.363 244.327 C 537.435 242.857, 534.478 239.595, 532.790 237.077 C 518.564 215.857, 492.897 203.120, 463 202.445 C 456.675 202.302, 450.150 202.406, 448.500 202.676" stroke="none" fill="black" fill-rule="evenodd"></path>
</svg>
