<?xml version="1.0" encoding="utf-8"?>
<!-- Generator: Adobe Illustrator 27.0.0, SVG Export Plug-In . SVG Version: 6.00 Build 0)  -->
<svg version="1.1" id="Layer_1" xmlns="http://www.w3.org/2000/svg" xmlns:xlink="http://www.w3.org/1999/xlink" x="0px" y="0px"
	 viewBox="0 0 512 512" style="enable-background:new 0 0 512 512;" xml:space="preserve">
<g id="XMLID_1_">
	<path id="XMLID_8_" d="M353.83,341.65c-2.66-4.63,6.03-9.25,11.5-15.14c11.64-12.76,19.07-29.44,19.07-48.93
		c0-18.93-2.24-30.99-7.15-37.86c-2.94-4.21-6.03-5.61-11.08-5.19c-3.51,0.28-4.21,0.56-6.17,2.66c-3.65,4.07-3.93,6.03-3.65,28.18
		c0.28,23.55,0.98,35.33,2.24,39.26c0.98,5.05,5.05,4.77,7.43,10.52l0.14,5.47h-24.68H318.5c0-2.38-0.28-6.03,1.54-7.71
		c2.24-1.82,4.63-4.63,5.61-9.39c1.12-5.47,1.54-21.03,0.84-41.78c-0.56-20.19-0.98-21.87-5.05-24.82
		c-1.68-1.26-2.94-1.54-7.01-1.54c-4.63,0-5.19,0.14-7.57,2.1c-1.4,1.12-3.22,3.22-4.07,4.77l-1.54,2.66l0.42,30.42
		c0.28,32.25-0.42,32.67,5.89,36.59c3.93,2.52,3.93,5.33,3.36,8.55c-0.14,0.7-2.94,0.28-22.43,0.28c-21.45,0-23.83,0.56-23.69-0.56
		c0,0-1.26-2.66,0.42-5.47c1.68-2.8,4.63-3.36,6.03-6.73c2.24-6.17,1.96-13.46,1.4-41.5c-0.56-29.44-0.42-28.74-5.33-32.67
		c-2.24-1.82-2.66-2.66-2.66-4.49c0-1.96,0.28-2.52,2.52-3.65c1.4-0.7,5.05-1.68,7.57-2.8c5.19-2.38,5.75-2.24,16.68-6.45
		c6.45-2.52,7.57-3.65,8.69-2.94c1.12,0.56,1.4,1.4,1.4,4.49c0,4.77,0.7,4.77,6.59,0.28c6.03-4.63,8.27-5.75,16.96-6.17
		c6.17-0.28,8.55,0.14,12.34,1.4c3.93,1.26,5.33,2.1,9.53,6.17l4.91,4.77l5.19-3.79c8.55-6.31,12.06-7.85,18.65-8.27
		c14.86-0.84,28.6,9.25,34.91,25.24c3.08,7.99,3.79,14.02,3.51,28.88c-0.56,19.91-6.73,35.61-14.72,47.95
		c-6.87,10.52-10.09,13.32-20.61,21.03C368.83,342.49,355.37,345.02,353.83,341.65z M46.92,322.16
		c-18.51-4.21-30.28-18.65-34.07-41.92c-0.84-5.19-0.98-12.34-0.84-43.6c0.14-37.43,0.14-37.43-1.4-42.9
		c-1.96-6.87-3.93-10.24-7.57-13.46c-2.66-2.24-2.94-2.8-2.94-5.05c0-4.49-0.14-4.07,9.95-4.21c11.36-0.14,17.81,0.28,29.16-0.14
		c9.53-0.28,17.11-0.28,18.23,1.4c2.52,3.79-1.54,5.05-6.87,10.66c-7.29,7.71-7.29,7.57-7.85,31.97c-0.7,26.36,0.14,62.25,1.68,68
		c1.82,6.73,4.35,10.09,9.53,12.48c3.65,1.68,11.36,1.82,16.12,0.42c6.17-1.96,11.22-8.13,13.74-16.96
		c1.68-5.89,2.1-64.07,0.56-73.05c-2.1-12.76-4.91-19.07-11.64-24.4c-4.63-3.65-5.05-5.19-4.77-7.29c0.42-3.51,2.38-2.94,6.87-3.08
		c5.33-0.28,34.91-0.42,39.54-0.42c8.13,0,2.24,8.69-1.68,13.04c-4.91,5.05-5.75,6.45-7.57,11.36c-2.8,7.57-3.22,12.9-3.22,40.38
		c0,27.76,0.56,33.79,3.36,39.54c1.96,3.79,4.35,4.35,4.07,8.97c-0.7,8.69-7.57,17.81-14.58,25.1
		c-6.45,6.73-14.72,11.22-24.12,13.18C65,323.43,52.25,323.43,46.92,322.16z M441.18,320.06c-9.53-2.52-18.23-9.39-22.15-17.53
		c-2.94-6.17-3.79-11.36-3.36-19.35c0.7-14.44,7.15-24.68,18.23-29.3c3.08-1.26,5.05-3.36,13.18-1.54
		c7.85,1.26,10.09,4.63,12.48,7.99c2.38,3.36,4.07,4.49,5.33,11.92c0.56,3.93,1.54,5.47-2.1,5.05c-2.1-0.28-4.21-2.94-7.15-4.63
		c-2.1-1.12-4.35,0.28-6.31,1.26c-3.93,1.96-6.17,8.55-4.91,14.86c1.96,9.81,9.25,14.44,16.82,10.66c4.49-2.24,7.57-8.41,8.55-16.96
		c1.26-10.94-6.59-47.67-11.36-54.26c-3.08-4.21-9.95-2.24-12.2,1.12c-1.4,2.1-2.38,4.63,0.98,7.85c3.93,3.79,6.31,4.35,1.4,6.87
		c-2.94,1.54-5.89,1.68-11.08,1.68c-5.05,0-6.73-0.84-9.39-2.8c-10.09-7.57-15-16.82-15.84-28.74c0,0,0.84-6.03,6.03-6.31
		c4.35-0.28,9.11,3.51,9.11,3.51c11.36,5.47,16.4-0.98,30.42-4.07c12.06-2.52,16.4,2.52,22.15,9.11c5.75,6.45,8.13,13.6,11.92,35.89
		c5.19,30.71,7.43,42.9,8.83,46.83c0.84,2.52,4.91,7.57,7.43,10.8c3.51,4.35,4.21,6.31,3.79,7.85c-0.42,1.12-0.14,2.1-1.26,2.52
		c-3.08,0.84-25.52,0.98-27.2-0.14c-1.4-0.84-4.91-2.94-7.29-5.75c-2.38-2.94-2.8-0.84-5.33,1.12c-2.66,1.96-0.98,1.4-5.19,3.08
		c-6.03,2.52-7.85,1.96-13.88,2.1C447.49,320.9,443.28,320.62,441.18,320.06z M182.08,317.54c-3.51-1.68-5.61-3.93-7.57-7.71
		c-1.12-2.1-1.26-4.91-1.4-42.34l-0.14-40.1h-5.89h-5.89l-0.14-3.93c-0.14-7.71,0.56-8.97,6.03-11.22
		c8.97-3.79,12.62-10.66,17.39-23.41c5.89-15.98,6.03-17.11,8.41-16.54c3.36,0.7,3.79,2.8,3.79,21.73v17.25h6.87h8.69l-1.4,8.13
		l-1.4,8.13h-5.33h-6.17v35.75v32.53c0,0-0.28,3.22,2.52,4.35c2.66,1.12,4.21,2.1,8.83,0.56c3.51-1.12,5.89-1.82,7.29-0.56
		c2.24,2.38-0.14,8.27-5.19,13.46c-5.05,5.19-10.8,6.59-17.81,6.87C188.53,320.62,184.88,318.94,182.08,317.54z M114.64,317.54
		c0-1.68,0.7-2.66,2.94-4.77c2.8-2.94,5.89-3.93,5.89-11.08c0-14.16,0-50.75,0-50.75s-0.14-27.62-0.56-41.64
		c-0.14-7.57,0.42-10.09-1.68-15.28c-2.24-5.33-8.13-6.45-3.65-8.83c1.68-0.84,9.11-3.51,13.04-5.19c5.19-2.1,8.13-3.22,11.78-4.91
		c5.33-2.52,19.49-8.97,20.19-4.77c0.98,6.03-3.22,7.99-7.57,16.26c-3.79,7.15-3.08,21.73-3.08,53.84c0,64.07,0.56,65.76,6.87,71.65
		c1.96,1.82,3.65,2.94,3.65,4.07c0,1.68,0.28,3.65,0,4.63c0,0.14-4.91,0.14-25.24,0.14H114.5v-3.36H114.64z"/>
	<path id="XMLID_9_" d="M258.77,320.62h-20.33c-11.64,0-18.79,0.28-19.35-0.28c-2.1-2.1-3.22-3.79,1.12-8.41
		c3.08-3.22,4.49-5.05,5.05-6.87c1.68-6.31,1.12-18.79,0.7-37.29c0,0,0.28-10.66-0.84-20.05c-1.12-9.39-5.05-11.22-5.05-11.22
		c-8.83-5.89-4.77-5.61,4.77-10.52c5.61-2.94,9.25-4.35,18.37-9.11c5.75-2.94,17.39-7.99,18.65-4.63c0.98,2.66-6.59,9.53-8.13,14.44
		c-1.4,5.05-1.82,10.09-1.82,28.6c0,32.67,2.8,46.83,3.36,48.51c0.84,2.52,3.08,6.73,5.05,9.95
		C261.85,316.14,261.15,319.22,258.77,320.62z"/>
	<path id="XMLID_10_" d="M226.24,214.21c-6.59-3.65-10.38-12.34-8.27-19.21c3.08-10.38,15.28-15.28,25.52-10.38
		c6.17,2.94,8.83,7.01,9.25,13.32c0.7,6.31-2.8,11.92-8.13,15.56C239.42,216.87,231.85,217.01,226.24,214.21z"/>
</g>
</svg>
